/* XPM */
static char * 0_xpm[] = {
"30 30 63 1",
" 	c None",
".	c #000000",
"+	c #858585",
"@	c #D7D7D7",
"#	c #F5F5F5",
"$	c #FCFCFC",
"%	c #F0F0F0",
"&	c #CBCBCB",
"*	c #6A6A6A",
"=	c #AFAFAF",
"-	c #FEFEFE",
";	c #FFFFFF",
">	c #FAFAFA",
",	c #8A8A8A",
"'	c #4F4F4F",
")	c #EAEAEA",
"!	c #E1E1E1",
"~	c #787878",
"{	c #3D3D3D",
"]	c #868686",
"^	c #EBEBEB",
"/	c #ECECEC",
"(	c #323232",
"_	c #606060",
":	c #FBFBFB",
"<	c #494949",
"[	c #BEBEBE",
"}	c #A6A6A6",
"|	c #9B9B9B",
"1	c #D4D4D4",
"2	c #6C6C6C",
"3	c #A3A3A3",
"4	c #B7B7B7",
"5	c #DADADA",
"6	c #565656",
"7	c #949494",
"8	c #DBDBDB",
"9	c #D5D5D5",
"0	c #6D6D6D",
"a	c #A1A1A1",
"b	c #B6B6B6",
"c	c #C0C0C0",
"d	c #A7A7A7",
"e	c #CACACA",
"f	c #878787",
"g	c #EDEDED",
"h	c #4D4D4D",
"i	c #E8E8E8",
"j	c #DDDDDD",
"k	c #727272",
"l	c #3B3B3B",
"m	c #EEEEEE",
"n	c #D0D0D0",
"o	c #848484",
"p	c #F9F9F9",
"q	c #5D5D5D",
"r	c #8E8E8E",
"s	c #8C8C8C",
"t	c #D9D9D9",
"u	c #F4F4F4",
"v	c #F2F2F2",
"w	c #CECECE",
"x	c #696969",
"                              ",
"                              ",
"                              ",
"                              ",
"                              ",
"                              ",
"                              ",
"                              ",
"                              ",
"           ........           ",
"          .+@#$%&*..          ",
"         .=-;;;;;>+..         ",
"        .,;;;;;;;;#'.         ",
"        .);;!~{]^;;&..        ",
"       .];;/(..._:;$<.        ",
"       .[;;}..  .&;;|.        ",
"       .1;;2.   .3;;4.        ",
"       .5;;6.    7;;[.        ",
"       .8;;6.    7;;[.        ",
"       .5;;6.    7;;[.        ",
"       .9;;0.   .a;;b.        ",
"       .c;;d..  .e;;|.        ",
"       .f;;g(..._>;$h.        ",
"        .i;;jkl,m;;n..        ",
"        .o-;;;;;;;pq.         ",
"         .=;;;;;;:r..         ",
"          .stu$vwx..          ",
"           ........           ",
"                              ",
"                              "};
