/* XPM */
static char * 3_xpm[] = {
"30 30 62 1",
" 	c None",
".	c #000000",
"+	c #3D3D3D",
"@	c #B0B0B0",
"#	c #E1E1E1",
"$	c #F6F6F6",
"%	c #FDFDFD",
"&	c #DDDDDD",
"*	c #9C9C9C",
"=	c #818181",
"-	c #F2F2F2",
";	c #FFFFFF",
">	c #D5D5D5",
",	c #222222",
"'	c #4D4D4D",
")	c #F7F7F7",
"!	c #C2C2C2",
"~	c #8E8E8E",
"{	c #A7A7A7",
"]	c #535353",
"^	c #2E2E2E",
"/	c #696969",
"(	c #FBFBFB",
"_	c #3B3B3B",
":	c #E7E7E7",
"<	c #EFEFEF",
"[	c #707070",
"}	c #D7D7D7",
"|	c #DADADA",
"1	c #7C7C7C",
"2	c #5C5C5C",
"3	c #C6C6C6",
"4	c #2A2A2A",
"5	c #A3A3A3",
"6	c #ABABAB",
"7	c #E2E2E2",
"8	c #A6A6A6",
"9	c #FAFAFA",
"0	c #C0C0C0",
"a	c #0D0D0D",
"b	c #454545",
"c	c #C4C4C4",
"d	c #FCFCFC",
"e	c #9B9B9B",
"f	c #8D8D8D",
"g	c #DEDEDE",
"h	c #ECECEC",
"i	c #D9D9D9",
"j	c #B9B9B9",
"k	c #6A6A6A",
"l	c #353535",
"m	c #5D5D5D",
"n	c #949494",
"o	c #E0E0E0",
"p	c #585858",
"q	c #FEFEFE",
"r	c #838383",
"s	c #A0A0A0",
"t	c #D2D2D2",
"u	c #EDEDED",
"v	c #BABABA",
"w	c #555555",
"                              ",
"                              ",
"                              ",
"                              ",
"                              ",
"                              ",
"                              ",
"                              ",
"                              ",
"          .........           ",
"         .+@#$%$&*..          ",
"        .=-;;;;;;;>,.         ",
"        ');;;;;;;;;!..        ",
"        ~;;${]^/!;;(+.        ",
"        _:<[.....};;=.        ",
"         ........|;;1.        ",
"            ...23;;)4.        ",
"           .5(;;;;;6..        ",
"           .7;;;;;|..         ",
"           .89;;;;;0..        ",
"            .ab1cd;;e..       ",
"             ....f;;g..       ",
"        .........^d;h..       ",
"       ai$jkla^mno;;}..       ",
"       p;;;;;;;;;;;qr.        ",
"       .>;;;;;;;;;(s..        ",
"        .ntu9q9-gvw..         ",
"         ...........          ",
"                              ",
"                              "};
