/* XPM */
static char * 5_xpm[] = {
"30 30 56 1",
" 	c None",
".	c #000000",
"+	c #E3E3E3",
"@	c #FFFFFF",
"#	c #F3F3F3",
"$	c #8F8F8F",
"%	c #D2D2D2",
"&	c #F4F4F4",
"*	c #919191",
"=	c #3D3D3D",
"-	c #DADADA",
";	c #F7F7F7",
">	c #FAFAFA",
",	c #E7E7E7",
"'	c #B7B7B7",
")	c #404040",
"!	c #F0F0F0",
"~	c #707070",
"{	c #DFDFDF",
"]	c #F2F2F2",
"^	c #424242",
"/	c #9C9C9C",
"(	c #F8F8F8",
"_	c #E4E4E4",
":	c #B4B4B4",
"<	c #767676",
"[	c #535353",
"}	c #A0A0A0",
"|	c #B8B8B8",
"1	c #838383",
"2	c #E2E2E2",
"3	c #0D0D0D",
"4	c #FCFCFC",
"5	c #EEEEEE",
"6	c #717171",
"7	c #E5E5E5",
"8	c #262626",
"9	c #C5C5C5",
"0	c #7C7C7C",
"a	c #161616",
"b	c #2A2A2A",
"c	c #5D5D5D",
"d	c #EFEFEF",
"e	c #C2C2C2",
"f	c #656565",
"g	c #F9F9F9",
"h	c #5A5A5A",
"i	c #C4C4C4",
"j	c #F5F5F5",
"k	c #858585",
"l	c #757575",
"m	c #E6E6E6",
"n	c #FDFDFD",
"o	c #DEDEDE",
"p	c #B2B2B2",
"q	c #474747",
"                              ",
"                              ",
"                              ",
"                              ",
"                              ",
"                              ",
"                              ",
"                              ",
"         ..........           ",
"        .............         ",
"        .+@@@@@@@@#$..        ",
"        .+@@@@@@@@@%..        ",
"        .+@@@@@@@@&*..        ",
"        .+@@=........         ",
"        .+@@=......           ",
"        .+@@=......           ",
"        .+@@$-;>,')..         ",
"        .+@@@@@@@@!~..        ",
"        .{@@@@@@@@@]^.        ",
"        ./(_:<=[}&@@|..       ",
"         ........1@@2..       ",
"                 34@5..       ",
"        .........6@@7..       ",
"       8{;90)abc/d@@e..       ",
"       f@@@@@@@@@@@gh.        ",
"       .i@@@@@@@@@jk..        ",
"        .l9m;n4#opq..         ",
"         ..........           ",
"                              ",
"                              "};
