/* XPM */
static char * 7_xpm[] = {
"30 30 39 1",
" 	c None",
".	c #000000",
"+	c #F6F6F6",
"@	c #FFFFFF",
"#	c #898989",
"$	c #EEEEEE",
"%	c #0D0D0D",
"&	c #F1F1F1",
"*	c #FDFDFD",
"=	c #535353",
"-	c #CACACA",
";	c #BEBEBE",
">	c #888888",
",	c #DCDCDC",
"'	c #CDCDCD",
")	c #A0A0A0",
"!	c #2E2E2E",
"~	c #F8F8F8",
"{	c #FAFAFA",
"]	c #3B3B3B",
"^	c #9B9B9B",
"/	c #D1D1D1",
"(	c #D8D8D8",
"_	c #919191",
":	c #4B4B4B",
"<	c #FCFCFC",
"[	c #F5F5F5",
"}	c #1C1C1C",
"|	c #ACACAC",
"1	c #C7C7C7",
"2	c #E4E4E4",
"3	c #7E7E7E",
"4	c #666666",
"5	c #BBBBBB",
"6	c #696969",
"7	c #656565",
"8	c #262626",
"9	c #DFDFDF",
"0	c #8D8D8D",
"                              ",
"                              ",
"                              ",
"                              ",
"                              ",
"                              ",
"                              ",
"                              ",
"        .............         ",
"       ...............        ",
"       .+@@@@@@@@@@@#.        ",
"       .+@@@@@@@@@@@#.        ",
"       .+@@@@@@@@@@@#.        ",
"       .+@$.....%&@*=.        ",
"       .-@;.....>@@,..        ",
"        ....   .'@@).         ",
"               !~@{].         ",
"              .^@@/..         ",
"              .(@@_.          ",
"              :<@[}.          ",
"             .|@@1..          ",
"             .2@@3.           ",
"             4@@$..           ",
"            .5@@5..           ",
"            .$@@6.            ",
"            7@@2..            ",
"            89[0..            ",
"             ....             ",
"                              ",
"                              "};
