/* XPM */
static char * B_xpm[] = {
"30 30 52 1",
" 	c None",
".	c #000000",
"+	c #A8A8A8",
"@	c #F0F0F0",
"#	c #FFFFFF",
"$	c #F6F6F6",
"%	c #E9E9E9",
"&	c #D5D5D5",
"*	c #909090",
"=	c #0D0D0D",
"-	c #E4E4E4",
";	c #E0E0E0",
">	c #2A2A2A",
",	c #B4B4B4",
"'	c #FEFEFE",
")	c #C5C5C5",
"!	c #4B4B4B",
"~	c #6D6D6D",
"{	c #797979",
"]	c #9F9F9F",
"^	c #ECECEC",
"/	c #494949",
"(	c #FAFAFA",
"_	c #4F4F4F",
":	c #7D7D7D",
"<	c #C4C4C4",
"[	c #DFDFDF",
"}	c #727272",
"|	c #B9B9B9",
"1	c #161616",
"2	c #DDDDDD",
"3	c #2E2E2E",
"4	c #262626",
"5	c #535353",
"6	c #979797",
"7	c #EEEEEE",
"8	c #B8B8B8",
"9	c #7F7F7F",
"0	c #404040",
"a	c #8F8F8F",
"b	c #626262",
"c	c #828282",
"d	c #B5B5B5",
"e	c #F7F7F7",
"f	c #D4D4D4",
"g	c #AFAFAF",
"h	c #FCFCFC",
"i	c #929292",
"j	c #C3C3C3",
"k	c #ABABAB",
"l	c #F3F3F3",
"m	c #DEDEDE",
"                              ",
"                              ",
"                              ",
"                              ",
"                              ",
"                              ",
"                              ",
"                              ",
"       .........              ",
"      ..............          ",
"     .+@#######$%&*=.         ",
"     .-############;>.        ",
"     .,'############).        ",
"     ..!####~~{]&###^.        ",
"      ..####..../###(.        ",
"       .####.._:<###[.        ",
"       .###########$}.        ",
"       .###########|1.        ",
"       .############23.       ",
"       .####..4567###8.       ",
"       .####.....9###^.       ",
"       .####..  .0###(.       ",
"      ..####.....a###7.       ",
"     ..0####bb~cde###f.       ",
"     .gh#############i.       ",
"     .-#############j..       ",
"     .k@########(lm6..        ",
"      ...............         ",
"       ..........             ",
"                              "};
