/* XPM */
static char * C_xpm[] = {
"30 30 63 1",
" 	c None",
".	c #000000",
"+	c #5F5F5F",
"@	c #BBBBBB",
"#	c #E5E5E5",
"$	c #F6F6F6",
"%	c #FBFBFB",
"&	c #EFEFEF",
"*	c #DBDBDB",
"=	c #A6A6A6",
"-	c #8A8A8A",
";	c #F2F2F2",
">	c #E0E0E0",
",	c #0D0D0D",
"'	c #FFFFFF",
")	c #666666",
"!	c #D4D4D4",
"~	c #787878",
"{	c #B9B9B9",
"]	c #D8D8D8",
"^	c #AAAAAA",
"/	c #888888",
"(	c #949494",
"_	c #C4C4C4",
":	c #FCFCFC",
"<	c #7C7C7C",
"[	c #565656",
"}	c #A5A5A5",
"|	c #9F9F9F",
"1	c #7E7E7E",
"2	c #E8E8E8",
"3	c #696969",
"4	c #E3E3E3",
"5	c #8F8F8F",
"6	c #7D7D7D",
"7	c #D5D5D5",
"8	c #BEBEBE",
"9	c #656565",
"0	c #FDFDFD",
"a	c #323232",
"b	c #919191",
"c	c #DCDCDC",
"d	c #ADADAD",
"e	c #1C1C1C",
"f	c #E6E6E6",
"g	c #F8F8F8",
"h	c #9B9B9B",
"i	c #C5C5C5",
"j	c #DDDDDD",
"k	c #AFAFAF",
"l	c #909090",
"m	c #A0A0A0",
"n	c #C1C1C1",
"o	c #262626",
"p	c #DEDEDE",
"q	c #858585",
"r	c #EAEAEA",
"s	c #777777",
"t	c #686868",
"u	c #F1F1F1",
"v	c #E2E2E2",
"w	c #C8C8C8",
"x	c #808080",
"                              ",
"                              ",
"                              ",
"                              ",
"                              ",
"                              ",
"                              ",
"                              ",
"                              ",
"          ............        ",
"        ..+@#$%&*=-;>..       ",
"       .,@%'''''''''').       ",
"      .,!''''''''''''~.       ",
"      .{'''']^/(_:'''<.       ",
"     .[%'''}.....|'''1.       ",
"     .{'''].    ..2''3.       ",
"     .4'''5.     .678..       ",
"     .$'''9.      ....        ",
"     .0'''a.                  ",
"     .$''').                  ",
"     .#'''b.                  ",
"     .8'''c..    ...,.        ",
"     .90'''d.....e|fgh.       ",
"      .i''''jklmn;'''!.       ",
"      .op''''''''''':q.       ",
"       .oi0''''''''rs.        ",
"        ..t8f$:uvwx..         ",
"          ..........          ",
"                              ",
"                              "};
