/* XPM */
static char * colon_xpm[] = {
"30 30 24 1",
" 	c None",
".	c #000000",
"+	c #626262",
"@	c #E5E5E5",
"#	c #FAFAFA",
"$	c #D9D9D9",
"%	c #383838",
"&	c #CCCCCC",
"*	c #FFFFFF",
"=	c #ADADAD",
"-	c #656565",
";	c #E6E6E6",
">	c #FBFBFB",
",	c #DBDBDB",
"'	c #3B3B3B",
")	c #5C5C5C",
"!	c #E3E3E3",
"~	c #DCDCDC",
"{	c #404040",
"]	c #C7C7C7",
"^	c #B2B2B2",
"/	c #5F5F5F",
"(	c #DDDDDD",
"_	c #424242",
"                              ",
"                              ",
"                              ",
"                              ",
"                              ",
"                              ",
"                              ",
"                              ",
"                              ",
"                              ",
"                              ",
"                              ",
"                              ",
"            .....             ",
"           .+@#$%.            ",
"           .&***=.            ",
"           .&***=.            ",
"           .-;>,'.            ",
"            .....             ",
"                              ",
"                              ",
"                              ",
"            .....             ",
"           .)!>~{.            ",
"           .]***^.            ",
"           .]***^.            ",
"           ./@>(_.            ",
"            .....             ",
"                              ",
"                              "};
