/* XPM */
static char * d_xpm[] = {
"30 30 51 1",
" 	c None",
".	c #000000",
"+	c #ADADAD",
"@	c #F0F0F0",
"#	c #FFFFFF",
"$	c #FBFBFB",
"%	c #F7F7F7",
"&	c #F3F3F3",
"*	c #EBEBEB",
"=	c #D1D1D1",
"-	c #989898",
";	c #1C1C1C",
">	c #E8E8E8",
",	c #5C5C5C",
"'	c #BABABA",
")	c #F4F4F4",
"!	c #585858",
"~	c #565656",
"{	c #787878",
"]	c #919191",
"^	c #AFAFAF",
"/	c #E2E2E2",
"(	c #DADADA",
"_	c #ABABAB",
":	c #808080",
"<	c #C5C5C5",
"[	c #909090",
"}	c #E7E7E7",
"|	c #686868",
"1	c #323232",
"2	c #FCFCFC",
"3	c #666666",
"4	c #F2F2F2",
"5	c #8F8F8F",
"6	c #E5E5E5",
"7	c #D8D8D8",
"8	c #C3C3C3",
"9	c #A8A8A8",
"0	c #767676",
"a	c #949494",
"b	c #E1E1E1",
"c	c #BBBBBB",
"d	c #4D4D4D",
"e	c #E3E3E3",
"f	c #5D5D5D",
"g	c #AEAEAE",
"h	c #F1F1F1",
"i	c #F8F8F8",
"j	c #DBDBDB",
"k	c #A3A3A3",
"l	c #222222",
"                              ",
"                              ",
"                              ",
"                              ",
"                              ",
"                              ",
"                              ",
"                              ",
"       ......                 ",
"      .............           ",
"     .+@####$%&*=-;.          ",
"     .>###########>,.         ",
"     .'############)!.        ",
"     ..~####{]^/####(..       ",
"      ..####...._####:.       ",
"       .####..  .(###<.       ",
"       .####..  .[###}.       ",
"       .####..  .|###&..      ",
"       .####..  .1###2..      ",
"       .####..  .3###4..      ",
"       .####..  .5###6.       ",
"       .####..  .7###8.       ",
"      ..####....9####0.       ",
"     ..,####:a^b####7..       ",
"     .c############4d.        ",
"     .>###########ef.         ",
"     .gh#####$ihjkl.          ",
"      .............           ",
"       .......                ",
"                              "};
