/* XPM */
static char * dash_xpm[] = {
"30 30 52 1",
" 	c None",
".	c #000000",
"+	c #3D3D3D",
"@	c #E8E8E8",
"#	c #F3F3F3",
"$	c #757575",
"%	c #B7B7B7",
"&	c #FFFFFF",
"*	c #B2B2B2",
"=	c #323232",
"-	c #F5F5F5",
";	c #FEFEFE",
">	c #666666",
",	c #ABABAB",
"'	c #D5D5D5",
")	c #1C1C1C",
"!	c #EFEFEF",
"~	c #7C7C7C",
"{	c #9E9E9E",
"]	c #DFDFDF",
"^	c #8E8E8E",
"/	c #D6D6D6",
"(	c #ADADAD",
"_	c #696969",
":	c #F6F6F6",
"<	c #353535",
"[	c #CBCBCB",
"}	c #B9B9B9",
"|	c #565656",
"1	c #FCFCFC",
"2	c #FAFAFA",
"3	c #4B4B4B",
"4	c #C0C0C0",
"5	c #C5C5C5",
"6	c #424242",
"7	c #F8F8F8",
"8	c #FDFDFD",
"9	c #5F5F5F",
"0	c #B5B5B5",
"a	c #D0D0D0",
"b	c #2A2A2A",
"c	c #F4F4F4",
"d	c #737373",
"e	c #A8A8A8",
"f	c #DADADA",
"g	c #161616",
"h	c #EEEEEE",
"i	c #868686",
"j	c #999999",
"k	c #E4E4E4",
"l	c #979797",
"m	c #D7D7D7",
"                              ",
"                              ",
"                              ",
"                              ",
"                              ",
"                              ",
"                 ....         ",
"                .+@#$.        ",
"                .%&&*.        ",
"               .=-&;>.        ",
"               .,&&'.         ",
"              .)!&&~.         ",
"              .{&&]..         ",
"             ..@&&^.          ",
"             .^&&@..          ",
"            ..]&&{.           ",
"            .~&&!).           ",
"            ./&&(.            ",
"           ._;&:<.            ",
"           .[&&}.             ",
"          .|1&23.             ",
"          .4&&5.              ",
"         .67&89.              ",
"         .0&&a.               ",
"        .bc&&d.               ",
"        .e&&f.                ",
"       .gh&&i.                ",
"       .j&&k..                ",
"       .a&&l.                 ",
"       .l7m..                 "};
