/* XPM */
static char * e_xpm[] = {
"30 30 25 1",
" 	c None",
".	c #000000",
"+	c #898989",
"@	c #FBFBFB",
"#	c #FFFFFF",
"$	c #EFEFEF",
"%	c #CBCBCB",
"&	c #8A8A8A",
"*	c #919191",
"=	c #C1C1C1",
"-	c #F8F8F8",
";	c #D4D4D4",
">	c #B3B3B3",
",	c #222222",
"'	c #E5E5E5",
")	c #CCCCCC",
"!	c #C0C0C0",
"~	c #D8D8D8",
"{	c #5A5A5A",
"]	c #F2F2F2",
"^	c #FAFAFA",
"/	c #7A7A7A",
"(	c #9B9B9B",
"_	c #B9B9B9",
":	c #888888",
"                              ",
"                              ",
"                              ",
"                              ",
"                              ",
"                              ",
"                              ",
"                              ",
"                              ",
"       ...............        ",
"      .................       ",
"     .+@############$..       ",
"     .%#############$..       ",
"     .&@############$..       ",
"      ..*##=......-#$..       ",
"       .*##=..;#>.-#$..       ",
"        *##=.,##'.)#!..       ",
"        *#######'.....        ",
"        *#######'..           ",
"        *#######'.....        ",
"        *##=.,##'......       ",
"        *##=..;#~.{]^/.       ",
"       .*##=......(##_.       ",
"      ..*##=......(##_.       ",
"     .:@#############_.       ",
"     .%##############_.       ",
"     .&@#############_.       ",
"      .................       ",
"       ...............        ",
"                              "};
