/* XPM */
static char * i_xpm[] = {
"30 30 12 1",
" 	c None",
".	c #000000",
"+	c #9D9D9D",
"@	c #FEFEFE",
"#	c #FFFFFF",
"$	c #F7F7F7",
"%	c #787878",
"&	c #DBDBDB",
"*	c #BCBCBC",
"=	c #9E9E9E",
"-	c #F8F8F8",
";	c #E7E7E7",
"                              ",
"                              ",
"                              ",
"                              ",
"                              ",
"                              ",
"                              ",
"                              ",
"                              ",
"         ............         ",
"        ..............        ",
"       .+@#########$%.        ",
"       .&###########*.        ",
"       .=@#########-%.        ",
"        .....##;......        ",
"         ....##;.....         ",
"            .##;..            ",
"            .##;..            ",
"            .##;..            ",
"            .##;..            ",
"            .##;..            ",
"            .##;..            ",
"         ....##;.....         ",
"        .....##;......        ",
"       .+@#########$%.        ",
"       .&###########*.        ",
"       .=@#########-%.        ",
"        ..............        ",
"         ............         ",
"                              "};
