/* XPM */
static char * m_xpm[] = {
"30 30 55 1",
" 	c None",
".	c #000000",
"+	c #4B4B4B",
"@	c #EAEAEA",
"#	c #FFFFFF",
"$	c #F2F2F2",
"%	c #262626",
"&	c #454545",
"*	c #F9F9F9",
"=	c #E6E6E6",
"-	c #404040",
";	c #919191",
">	c #A7A7A7",
",	c #B7B7B7",
"'	c #818181",
")	c #4F4F4F",
"!	c #EFEFEF",
"~	c #EEEEEE",
"{	c #161616",
"]	c #323232",
"^	c #F5F5F5",
"/	c #EBEBEB",
"(	c #424242",
"_	c #E5E5E5",
":	c #9D9D9D",
"<	c #ACACAC",
"[	c #DDDDDD",
"}	c #E9E9E9",
"|	c #1C1C1C",
"1	c #939393",
"2	c #9F9F9F",
"3	c #A3A3A3",
"4	c #E3E3E3",
"5	c #A4A4A4",
"6	c #2E2E2E",
"7	c #F0F0F0",
"8	c #C0C0C0",
"9	c #515151",
"0	c #222222",
"a	c #ADADAD",
"b	c #353535",
"c	c #B9B9B9",
"d	c #B3B3B3",
"e	c #474747",
"f	c #F8F8F8",
"g	c #555555",
"h	c #636363",
"i	c #7C7C7C",
"j	c #CBCBCB",
"k	c #F6F6F6",
"l	c #707070",
"m	c #BEBEBE",
"n	c #FCFCFC",
"o	c #B4B4B4",
"p	c #CACACA",
"                              ",
"                              ",
"                              ",
"                              ",
"                              ",
"                              ",
"                              ",
"                              ",
"                              ",
"       ......      .....      ",
"      ........    .......     ",
"      +@###$%.    &*###=-.    ",
"      ;#####>..  .,#####'.    ",
"      )!####~{.  ]^####/(.    ",
"      .._####:...<####[..     ",
"       ._####}..|!####[..     ",
"       ._##/##1.2##/##[..     ",
"       ._##3##4.}##5##[..     ",
"       ._##67##8##/9##[..     ",
"       ._##0a#####5)##[..     ",
"       ._##0b^###$%)##[..     ",
"       ._##0.c###d.)##[..     ",
"       ._##0.e*#f-.)##[..     ",
"      .._##0..ghg..)##[...    ",
"     .i*#####8...j#####kl.    ",
"     .m######^...n######o.    ",
"     .if#####8...p#####kl.    ",
"      .........  .........    ",
"       .......    .......     ",
"                              "};
