/* XPM */
static char * n_xpm[] = {
"30 30 45 1",
" 	c None",
".	c #000000",
"+	c #404040",
"@	c #E6E6E6",
"#	c #FFFFFF",
"$	c #FEFEFE",
"%	c #838383",
"&	c #B3B3B3",
"*	c #FBFBFB",
"=	c #898989",
"-	c #818181",
";	c #EDEDED",
">	c #323232",
",	c #EBEBEB",
"'	c #CBCBCB",
")	c #C2C2C2",
"!	c #8A8A8A",
"~	c #F5F5F5",
"{	c #808080",
"]	c #F8F8F8",
"^	c #F1F1F1",
"/	c #ECECEC",
"(	c #2E2E2E",
"_	c #C0C0C0",
":	c #F3F3F3",
"<	c #7D7D7D",
"[	c #2A2A2A",
"}	c #BDBDBD",
"|	c #FDFDFD",
"1	c #797979",
"2	c #C3C3C3",
"3	c #E9E9E9",
"4	c #FAFAFA",
"5	c #EEEEEE",
"6	c #848484",
"7	c #939393",
"8	c #ABABAB",
"9	c #C5C5C5",
"0	c #D2D2D2",
"a	c #E5E5E5",
"b	c #383838",
"c	c #EFEFEF",
"d	c #929292",
"e	c #FCFCFC",
"f	c #878787",
"                              ",
"                              ",
"                              ",
"                              ",
"                              ",
"                              ",
"                              ",
"                              ",
"                              ",
"       ......    .......      ",
"      ........  .........     ",
"      +@###$%...&#####*=..    ",
"      -#####;>..,######'..    ",
"      +@#####)..&#####*!..    ",
"      ...~###${....]#^...     ",
"       ..~####/(...]#^..      ",
"        .~#~,##_...]#^..      ",
"        .~#:<$#$<..]#^..      ",
"        .~#:._##,[.]#^..      ",
"        .~#:.(/##}.]#^..      ",
"        .~#:..-$#|1]#^..      ",
"        .~#:...2##34#^..      ",
"        .~#:...>5####^..      ",
"       ..~#:....6$###^..      ",
"      .7|#####8..9###^..      ",
"      .0######a..bc##^..      ",
"      .de#####8...f##^..      ",
"       .........  ......      ",
"        .......    ....       ",
"                              "};
