/* XPM */
static char * p_xpm[] = {
"30 30 37 1",
" 	c None",
".	c #000000",
"+	c #565656",
"@	c #EEEEEE",
"#	c #FFFFFF",
"$	c #FBFBFB",
"%	c #EFEFEF",
"&	c #D0D0D0",
"*	c #808080",
"=	c #9B9B9B",
"-	c #BEBEBE",
";	c #ABABAB",
">	c #222222",
",	c #E5E5E5",
"'	c #3D3D3D",
")	c #7A7A7A",
"!	c #D1D1D1",
"~	c #F3F3F3",
"{	c #0D0D0D",
"]	c #E3E3E3",
"^	c #5C5C5C",
"/	c #262626",
"(	c #EBEBEB",
"_	c #4F4F4F",
":	c #9C9C9C",
"<	c #EAEAEA",
"[	c #FEFEFE",
"}	c #8F8F8F",
"|	c #F6F6F6",
"1	c #929292",
"2	c #F8F8F8",
"3	c #E7E7E7",
"4	c #BCBCBC",
"5	c #4D4D4D",
"6	c #F7F7F7",
"7	c #767676",
"8	c #B9B9B9",
"                              ",
"                              ",
"                              ",
"                              ",
"                              ",
"                              ",
"                              ",
"                              ",
"                              ",
"        .........             ",
"       ..............         ",
"       +@#######$%&*..        ",
"       =############-..       ",
"       +@############;..      ",
"       ..>##,...')!##~{.      ",
"        .>##,......]##^.      ",
"         >##,...../(##_.      ",
"         >##,..>^:,##<..      ",
"         >##########[}..      ",
"         >#########|1..       ",
"         >#####[2345..        ",
"         >##,.......          ",
"        .>##,.....            ",
"       ..>##,......           ",
"       +@#######67.           ",
"       =#########8.           ",
"       +@#######67.           ",
"       ............           ",
"        ..........            ",
"                              "};
