/* XPM */
static char * s_xpm[] = {
"30 30 73 1",
" 	c None",
".	c #000000",
"+	c #4B4B4B",
"@	c #B9B9B9",
"#	c #E6E6E6",
"$	c #F8F8F8",
"%	c #FBFBFB",
"&	c #EEEEEE",
"*	c #D5D5D5",
"=	c #858585",
"-	c #C5C5C5",
";	c #F2F2F2",
">	c #6C6C6C",
",	c #818181",
"'	c #F4F4F4",
")	c #FFFFFF",
"!	c #B6B6B6",
"~	c #585858",
"{	c #F7F7F7",
"]	c #BEBEBE",
"^	c #A6A6A6",
"/	c #2A2A2A",
"(	c #656565",
"_	c #B5B5B5",
":	c #D6D6D6",
"<	c #A9A9A9",
"[	c #C4C4C4",
"}	c #A3A3A3",
"|	c #424242",
"1	c #EBEBEB",
"2	c #F3F3F3",
"3	c #6D6D6D",
"4	c #FCFCFC",
"5	c #FEFEFE",
"6	c #D8D8D8",
"7	c #AFAFAF",
"8	c #878787",
"9	c #494949",
"0	c #9B9B9B",
"a	c #EFEFEF",
"b	c #CDCDCD",
"c	c #8A8A8A",
"d	c #626262",
"e	c #EDEDED",
"f	c #454545",
"g	c #848484",
"h	c #AAAAAA",
"i	c #222222",
"j	c #E2E2E2",
"k	c #7E7E7E",
"l	c #515151",
"m	c #161616",
"n	c #7F7F7F",
"o	c #DDDDDD",
"p	c #E8E8E8",
"q	c #555555",
"r	c #8D8D8D",
"s	c #E5E5E5",
"t	c #9F9F9F",
"u	c #5C5C5C",
"v	c #979797",
"w	c #E0E0E0",
"x	c #FAFAFA",
"y	c #262626",
"z	c #C2C2C2",
"A	c #C8C8C8",
"B	c #E3E3E3",
"C	c #707070",
"D	c #AEAEAE",
"E	c #DEDEDE",
"F	c #F0F0F0",
"G	c #CACACA",
"H	c #797979",
"                              ",
"                              ",
"                              ",
"                              ",
"                              ",
"                              ",
"                              ",
"                              ",
"                              ",
"                              ",
"          ...........         ",
"         .+@#$%&*=-;>.        ",
"        .,')))))))))!.        ",
"        ~{))))))))))].        ",
"       .]))'^~/(_%))].        ",
"       .:))=.....<))!.        ",
"       .[))}.....|123.        ",
"       .34)56789.....         ",
"        .0%)))))abc..         ",
"         .d[e)))))):/.        ",
"        .....fghb$))-..       ",
"       ij;k. ....l;)%m.       ",
"       n))om.....mp))q.       ",
"       r)))st~/uvw))xy.       ",
"       r))))))))))))z..       ",
"       n)))))))))))Ai.        ",
"       iB&CDEF4x1GH..         ",
"        ............          ",
"                              ",
"                              "};
