/* XPM */
static char * slash_xpm[] = {
"30 30 5 1",
" 	c None",
".	c #000000",
"+	c #AEAEAE",
"@	c #FFFFFF",
"#	c #919191",
"                              ",
"                              ",
"                              ",
"                              ",
"                              ",
"                              ",
"                              ",
"                              ",
"                              ",
"                              ",
"                              ",
"                              ",
"                              ",
"                              ",
"                              ",
"        .............         ",
"       ...............        ",
"       .+@@@@@@@@@@@#.        ",
"       .+@@@@@@@@@@@#.        ",
"       .+@@@@@@@@@@@#.        ",
"       ...............        ",
"        .............         ",
"                              ",
"                              ",
"                              ",
"                              ",
"                              ",
"                              ",
"                              ",
"                              "};
