/* XPM */
static char * t_xpm[] = {
"30 30 20 1",
" 	c None",
".	c #000000",
"+	c #F1F1F1",
"@	c #FFFFFF",
"#	c #D2D2D2",
"$	c #F6F6F6",
"%	c #3D3D3D",
"&	c #E3E3E3",
"*	c #6E6E6E",
"=	c #C2C2C2",
"-	c #CACACA",
";	c #353535",
">	c #E6E6E6",
",	c #FEFEFE",
"'	c #999999",
")	c #ABABAB",
"!	c #F8F8F8",
"~	c #7C7C7C",
"{	c #E5E5E5",
"]	c #BEBEBE",
"                              ",
"                              ",
"                              ",
"                              ",
"                              ",
"                              ",
"                              ",
"                              ",
"                              ",
"       ................       ",
"      ..................      ",
"      .+@@@@@@@@@@@@@#..      ",
"      .+@@@@@@@@@@@@@#..      ",
"      .+@@@@@@@@@@@@@#..      ",
"      .+@$..%@@&..*@@#..      ",
"      .+@$..%@@&..*@@#..      ",
"      .+@$..%@@&..*@@#..      ",
"      .+@$..%@@&..*@@#..      ",
"      .=@-..%@@&..;>,'..      ",
"       .... %@@&.......       ",
"            %@@&.. ...        ",
"            %@@&..            ",
"          ..%@@&....          ",
"         ...%@@&.....         ",
"        .)@@@@@@@@!~.         ",
"        .{@@@@@@@@@].         ",
"        .)@@@@@@@@!~.         ",
"         ............         ",
"          ..........          ",
"                              "};
