/* XPM */
static char * u_xpm[] = {
"30 30 46 1",
" 	c None",
".	c #000000",
"+	c #9D9D9D",
"@	c #FEFEFE",
"#	c #FFFFFF",
"$	c #A0A0A0",
"%	c #BCBCBC",
"&	c #FAFAFA",
"*	c #818181",
"=	c #DBDBDB",
"-	c #DDDDDD",
";	c #F1F1F1",
">	c #C4C4C4",
",	c #9E9E9E",
"'	c #BBBBBB",
")	c #828282",
"!	c #FCFCFC",
"~	c #EDEDED",
"{	c #E9E9E9",
"]	c #F9F9F9",
"^	c #F2F2F2",
"/	c #3B3B3B",
"(	c #E6E6E6",
"_	c #ECECEC",
":	c #959595",
"<	c #B6B6B6",
"[	c #D3D3D3",
"}	c #BDBDBD",
"|	c #FBFBFB",
"1	c #686868",
"2	c #323232",
"3	c #717171",
"4	c #C8C8C8",
"5	c #969696",
"6	c #353535",
"7	c #E8E8E8",
"8	c #D8D8D8",
"9	c #4D4D4D",
"0	c #DFDFDF",
"a	c #D5D5D5",
"b	c #161616",
"c	c #DCDCDC",
"d	c #F6F6F6",
"e	c #FDFDFD",
"f	c #F5F5F5",
"g	c #939393",
"                              ",
"                              ",
"                              ",
"                              ",
"                              ",
"                              ",
"                              ",
"                              ",
"                              ",
"       .......  .......       ",
"      ..................      ",
"     .+@####@$.%#####&*.      ",
"     .=######-.;######>.      ",
"     .,@####@$.'#####&).      ",
"      ..!#~.......##{...      ",
"       .!#~...  ..##{..       ",
"       .!#~..    .##{..       ",
"       .!#~..    .##{..       ",
"       .!#~..    .##{..       ",
"       .!#~..    .##{..       ",
"       .!#~..    .##{..       ",
"       .]#^..    /##(..       ",
"       ._##:.....<##[..       ",
"       .}##|}1234###5.        ",
"        67#########8..        ",
"        .90#######a6.         ",
"         .b,cdef8g..          ",
"           ........           ",
"                              ",
"                              "};
