/* XPM */
static char * v_xpm[] = {
"30 30 61 1",
" 	c None",
".	c #000000",
"+	c #929292",
"@	c #FCFCFC",
"#	c #FFFFFF",
"$	c #BBBBBB",
"%	c #161616",
"&	c #D7D7D7",
"*	c #F5F5F5",
"=	c #6E6E6E",
"-	c #D2D2D2",
";	c #F1F1F1",
">	c #474747",
",	c #B4B4B4",
"'	c #A0A0A0",
")	c #BDBDBD",
"!	c #797979",
"~	c #B6B6B6",
"{	c #C8C8C8",
"]	c #E4E4E4",
"^	c #8F8F8F",
"/	c #494949",
"(	c #FAFAFA",
"_	c #818181",
":	c #ECECEC",
"<	c #C9C9C9",
"[	c #B7B7B7",
"}	c #D6D6D6",
"|	c #A8A8A8",
"1	c #6A6A6A",
"2	c #F3F3F3",
"3	c #262626",
"4	c #656565",
"5	c #FEFEFE",
"6	c #F6F6F6",
"7	c #323232",
"8	c #DADADA",
"9	c #A3A3A3",
"0	c #C7C7C7",
"a	c #8A8A8A",
"b	c #E8E8E8",
"c	c #555555",
"d	c #E9E9E9",
"e	c #CFCFCF",
"f	c #A4A4A4",
"g	c #777777",
"h	c #2A2A2A",
"i	c #F4F4F4",
"j	c #BEBEBE",
"k	c #DFDFDF",
"l	c #B9B9B9",
"m	c #949494",
"n	c #4F4F4F",
"o	c #FBFBFB",
"p	c #EEEEEE",
"q	c #0D0D0D",
"r	c #CCCCCC",
"s	c #ACACAC",
"t	c #717171",
"u	c #F7F7F7",
"v	c #383838",
"                              ",
"                              ",
"                              ",
"                              ",
"                              ",
"                              ",
"                              ",
"                              ",
"                              ",
"       .......    .......     ",
"      .........  .........    ",
"     .+@#####$..%&#####*=.    ",
"     .-######;..>#######,.    ",
"     .'######)..%&#####@!.    ",
"      ..~##{...  ..]##^...    ",
"       ./(#(/.   ._##:...     ",
"        .<##[..  .}##|..      ",
"         1##23.  45#67.       ",
"         .8##9...0##)..       ",
"         .a##b..>(#@c.        ",
"          .d##a.~##e..        ",
"          .f##832##g.         ",
"           hi##j##k..         ",
"           .l#####m.          ",
"            no###pq.          ",
"            .r###s..          ",
"             t##uv.           ",
"             ......           ",
"              ....            ",
"                              "};
