/* XPM */
static char * x_xpm[] = {
"30 30 70 1",
" 	c None",
".	c #000000",
"+	c #6C6C6C",
"@	c #F5F5F5",
"#	c #FFFFFF",
"$	c #BEBEBE",
"%	c #1C1C1C",
"&	c #D8D8D8",
"*	c #E8E8E8",
"=	c #454545",
"-	c #B1B1B1",
";	c #F3F3F3",
">	c #4F4F4F",
",	c #898989",
"'	c #6E6E6E",
")	c #F6F6F6",
"!	c #E4E4E4",
"~	c #222222",
"{	c #F8F8F8",
"]	c #EAEAEA",
"^	c #474747",
"/	c #A3A3A3",
"(	c #FDFDFD",
"_	c #949494",
":	c #B3B3B3",
"<	c #FAFAFA",
"[	c #7D7D7D",
"}	c #FBFBFB",
"|	c #828282",
"1	c #A1A1A1",
"2	c #919191",
"3	c #C2C2C2",
"4	c #F7F7F7",
"5	c #AEAEAE",
"6	c #0D0D0D",
"7	c #D0D0D0",
"8	c #B6B6B6",
"9	c #DDDDDD",
"0	c #CACACA",
"a	c #585858",
"b	c #F0F0F0",
"c	c #E6E6E6",
"d	c #3B3B3B",
"e	c #424242",
"f	c #E9E9E9",
"g	c #FEFEFE",
"h	c #262626",
"i	c #2E2E2E",
"j	c #E0E0E0",
"k	c #727272",
"l	c #F2F2F2",
"m	c #D2D2D2",
"n	c #161616",
"o	c #D5D5D5",
"p	c #C5C5C5",
"q	c #C8C8C8",
"r	c #6D6D6D",
"s	c #808080",
"t	c #9D9D9D",
"u	c #E7E7E7",
"v	c #383838",
"w	c #555555",
"x	c #888888",
"y	c #DBDBDB",
"z	c #787878",
"A	c #989898",
"B	c #9E9E9E",
"C	c #535353",
"D	c #EDEDED",
"E	c #878787",
"                              ",
"                              ",
"                              ",
"                              ",
"                              ",
"                              ",
"                              ",
"                              ",
"                              ",
"       ......    .....        ",
"      ........  .......       ",
"     .+@####$..%&####*=.      ",
"     .-#####;..>######,.      ",
"     .')####!..~{####]^.      ",
"      ../##(_...:##<[..       ",
"       ..:##}|.1##(2..        ",
"         .3##45(##/..         ",
"          67#####8..          ",
"           ~9###0..           ",
"          .ab###cd.           ",
"          ef##g##9h.          ",
"         ij##fkl##m6.         ",
"       .no##ba.')##p...       ",
"      ..q##)r. .s<##8...      ",
"     .tg####uv.wb####}x.      ",
"     .y######z.A######q.      ",
"     .Bg####!v.CD####}E.      ",
"      ........ .........      ",
"       ......   .......       ",
"                              "};
