/* XPM */
static char * y_xpm[] = {
"30 30 46 1",
" 	c None",
".	c #000000",
"+	c #666666",
"@	c #F3F3F3",
"#	c #FFFFFF",
"$	c #F8F8F8",
"%	c #ADADAD",
"&	c #262626",
"*	c #DCDCDC",
"=	c #EAEAEA",
"-	c #494949",
";	c #ABABAB",
">	c #ECECEC",
",	c #5D5D5D",
"'	c #8D8D8D",
")	c #FEFEFE",
"!	c #AEAEAE",
"~	c #2A2A2A",
"{	c #EFEFEF",
"]	c #E9E9E9",
"^	c #FBFBFB",
"/	c #767676",
"(	c #A1A1A1",
"_	c #F7F7F7",
":	c #BEBEBE",
"<	c #EEEEEE",
"[	c #424242",
"}	c #6C6C6C",
"|	c #FAFAFA",
"1	c #979797",
"2	c #1C1C1C",
"3	c #E3E3E3",
"4	c #D6D6D6",
"5	c #323232",
"6	c #C8C8C8",
"7	c #5F5F5F",
"8	c #2E2E2E",
"9	c #969696",
"0	c #6E6E6E",
"a	c #C6C6C6",
"b	c #A6A6A6",
"c	c #EDEDED",
"d	c #A3A3A3",
"e	c #868686",
"f	c #DFDFDF",
"g	c #878787",
"                              ",
"                              ",
"                              ",
"                              ",
"                              ",
"                              ",
"                              ",
"                              ",
"                              ",
"       .....     .....        ",
"      ........  .......       ",
"      +@###$%..&*####=-.      ",
"      ;#####>..,######'.      ",
"      +@###)!..~{####]-.      ",
"      ..')#^/. .(##_,..       ",
"       ..:##<[.}|##1..        ",
"         23##45]##6..         ",
"         .7_##=##]8.          ",
"          .9####|0.           ",
"           .a###b..           ",
"            ~)#c..            ",
"            .)#]..            ",
"          ...)#]....          ",
"         ....)#].....         ",
"        .d########^e.         ",
"        .f#########6.         ",
"        .d########^g.         ",
"         ............         ",
"          ..........          ",
"                              "};
