/* XPM */
static xpm_string_t _1024x768_xpm[] = {
"200 30 324 2",
"  	c None",
". 	c #000000",
"+ 	c #BC9466",
"@ 	c #B79063",
"# 	c #9D7B54",
"$ 	c #7A5F40",
"% 	c #675035",
"& 	c #A6835A",
"* 	c #6F563A",
"= 	c #3D2F1D",
"- 	c #1C140A",
"; 	c #453422",
"> 	c #7C6141",
", 	c #B08A5F",
"' 	c #B89164",
") 	c #91724D",
"! 	c #5E4930",
"~ 	c #382A1A",
"{ 	c #775D3F",
"] 	c #AA865C",
"^ 	c #846746",
"/ 	c #886A48",
"( 	c #A58259",
"_ 	c #A7835A",
": 	c #785E3F",
"< 	c #523F29",
"[ 	c #281E11",
"} 	c #392B1B",
"| 	c #6B5338",
"1 	c #AB875C",
"2 	c #BB9365",
"3 	c #987751",
"4 	c #654E34",
"5 	c #362919",
"6 	c #0D0803",
"7 	c #3B2C1C",
"8 	c #6C5438",
"9 	c #9F7D56",
"0 	c #8F704C",
"a 	c #644E34",
"b 	c #191109",
"c 	c #53402A",
"d 	c #352818",
"e 	c #A8845A",
"f 	c #A9855B",
"g 	c #483723",
"h 	c #120B05",
"i 	c #8D6E4B",
"j 	c #B28C60",
"k 	c #644D33",
"l 	c #755B3E",
"m 	c #BA9365",
"n 	c #94744F",
"o 	c #060402",
"p 	c #404040",
"q 	c #9A9A9A",
"r 	c #CECECE",
"s 	c #DEDEDE",
"t 	c #858585",
"u 	c #D7D7D7",
"v 	c #F5F5F5",
"w 	c #FCFCFC",
"x 	c #F0F0F0",
"y 	c #CBCBCB",
"z 	c #6A6A6A",
"A 	c #3B3B3B",
"B 	c #B0B0B0",
"C 	c #E4E4E4",
"D 	c #F6F6F6",
"E 	c #F1F1F1",
"F 	c #D0D0D0",
"G 	c #797979",
"H 	c #A58159",
"I 	c #C3C3C3",
"J 	c #FFFFFF",
"K 	c #BEBEBE",
"L 	c #898989",
"M 	c #302416",
"N 	c #909090",
"O 	c #D2D2D2",
"P 	c #DBDBDB",
"Q 	c #777777",
"R 	c #BA9265",
"S 	c #161616",
"T 	c #A4A4A4",
"U 	c #DFDFDF",
"V 	c #F7F7F7",
"W 	c #FDFDFD",
"X 	c #DADADA",
"Y 	c #959595",
"Z 	c #686868",
"` 	c #B4B4B4",
" .	c #E0E0E0",
"..	c #EBEBEB",
"+.	c #AFAFAF",
"@.	c #FEFEFE",
"#.	c #FAFAFA",
"$.	c #423320",
"%.	c #B68F63",
"&.	c #7D7D7D",
"*.	c #B6B6B6",
"=.	c #443321",
"-.	c #8A8A8A",
";.	c #5F5F5F",
">.	c #262626",
",.	c #B48E62",
"'.	c #D1D1D1",
").	c #222222",
"!.	c #826545",
"~.	c #745A3D",
"{.	c #AAAAAA",
"].	c #54412A",
"^.	c #4F4F4F",
"/.	c #806443",
"(.	c #7B6041",
"_.	c #3F301E",
":.	c #72593C",
"<.	c #494949",
"[.	c #F2F2F2",
"}.	c #92724E",
"|.	c #A68259",
"1.	c #41321F",
"2.	c #A38057",
"3.	c #AB865C",
"4.	c #878787",
"5.	c #F8F8F8",
"6.	c #535353",
"7.	c #D9D9D9",
"8.	c #C4C4C4",
"9.	c #EAEAEA",
"0.	c #E1E1E1",
"a.	c #787878",
"b.	c #3D3D3D",
"c.	c #868686",
"d.	c #2E2215",
"e.	c #B89163",
"f.	c #CDCDCD",
"g.	c #A1A1A1",
"h.	c #565656",
"i.	c #828282",
"j.	c #DDDDDD",
"k.	c #F4F4F4",
"l.	c #AD885D",
"m.	c #997852",
"n.	c #D5D5D5",
"o.	c #ADADAD",
"p.	c #EEEEEE",
"q.	c #0D0D0D",
"r.	c #B99164",
"s.	c #CCCCCC",
"t.	c #4B4B4B",
"u.	c #CFCFCF",
"v.	c #977651",
"w.	c #5D5D5D",
"x.	c #323232",
"y.	c #6D6D6D",
"z.	c #8E8E8E",
"A.	c #C0C0C0",
"B.	c #876947",
"C.	c #ECECEC",
"D.	c #606060",
"E.	c #FBFBFB",
"F.	c #A07D56",
"G.	c #727272",
"H.	c #B18B5F",
"I.	c #B3B3B3",
"J.	c #949494",
"K.	c #F3F3F3",
"L.	c #8F8F8F",
"M.	c #CACACA",
"N.	c #888888",
"O.	c #DCDCDC",
"P.	c #160F07",
"Q.	c #B58E62",
"R.	c #383838",
"S.	c #737373",
"T.	c #A7A7A7",
"U.	c #A38058",
"V.	c #322517",
"W.	c #73593C",
"X.	c #A6A6A6",
"Y.	c #513E29",
"Z.	c #9B9B9B",
"`.	c #C1C1C1",
" +	c #F9F9F9",
".+	c #BBBBBB",
"++	c #9A7852",
"@+	c #A8845B",
"#+	c #2C2114",
"$+	c #7E7E7E",
"%+	c #5F4931",
"&+	c #656565",
"*+	c #E9E9E9",
"=+	c #1C1C1C",
"-+	c #B2B2B2",
";+	c #B99264",
">+	c #A0A0A0",
",+	c #6A5237",
"'+	c #614B32",
")+	c #AEAEAE",
"!+	c #5C5C5C",
"~+	c #22180D",
"{+	c #4C3A26",
"]+	c #9D9D9D",
"^+	c #BFBFBF",
"/+	c #D4D4D4",
"(+	c #6C6C6C",
"_+	c #977751",
":+	c #7D6142",
"<+	c #A3A3A3",
"[+	c #B7B7B7",
"}+	c #856846",
"|+	c #8A6C49",
"1+	c #9B7A53",
"2+	c #241A0F",
"3+	c #454545",
"4+	c #8B6C4A",
"5+	c #7F7F7F",
"6+	c #757575",
"7+	c #979797",
"8+	c #919191",
"9+	c #7E6242",
"0+	c #2E2E2E",
"a+	c #9A7953",
"b+	c #2B1F12",
"c+	c #E2E2E2",
"d+	c #A5A5A5",
"e+	c #E8E8E8",
"f+	c #6E6E6E",
"g+	c #1F160C",
"h+	c #9C7A54",
"i+	c #4D4D4D",
"j+	c #AF895E",
"k+	c #A9845B",
"l+	c #C8C8C8",
"m+	c #56422B",
"n+	c #261C10",
"o+	c #B8B8B8",
"p+	c #A27F57",
"q+	c #D6D6D6",
"r+	c #B68F62",
"s+	c #473623",
"t+	c #BB9366",
"u+	c #B48D61",
"v+	c #A07E56",
"w+	c #816544",
"x+	c #55412B",
"y+	c #808080",
"z+	c #424242",
"A+	c #353535",
"B+	c #D8D8D8",
"C+	c #2A2A2A",
"D+	c #775C3E",
"E+	c #E7E7E7",
"F+	c #D3D3D3",
"G+	c #8D6F4B",
"H+	c #A48158",
"I+	c #3C2D1D",
"J+	c #BCBCBC",
"K+	c #6B5337",
"L+	c #474747",
"M+	c #604A31",
"N+	c #B18B60",
"O+	c #896B49",
"P+	c #555555",
"Q+	c #E5E5E5",
"R+	c #AE895E",
"S+	c #ACACAC",
"T+	c #C7C7C7",
"U+	c #515151",
"V+	c #BABABA",
"W+	c #707070",
"X+	c #93734E",
"Y+	c #785D3F",
"Z+	c #503E28",
"`+	c #848484",
" @	c #E6E6E6",
".@	c #B08B5F",
"+@	c #806444",
"@@	c #E3E3E3",
"#@	c #9F9F9F",
"$@	c #626262",
"%@	c #C5C5C5",
"&@	c #9F7C55",
"*@	c #EDEDED",
"=@	c #4D3B26",
"-@	c #57432C",
";@	c #B38D61",
">@	c #634C33",
",@	c #666666",
"'@	c #614B31",
")@	c #BDBDBD",
"!@	c #C9C9C9",
"~@	c #7C7C7C",
"{@	c #9C9C9C",
"]@	c #4E3C27",
"^@	c #896B48",
"/@	c #767676",
"(@	c #B9B9B9",
"_@	c #939393",
":@	c #71583B",
"<@	c #989898",
"[@	c #866847",
"}@	c #5D4830",
"|@	c #636363",
"1@	c #A48058",
"2@	c #5A5A5A",
"3@	c #8C8C8C",
"4@	c #696969",
"5@	c #B28C61",
"6@	c #8D8D8D",
"7@	c #795E40",
"8@	c #91714D",
"9@	c #967550",
"0@	c #999999",
"a@	c #664F34",
"b@	c #493824",
"c@	c #6D5539",
"d@	c #40311F",
"e@	c #463522",
"f@	c #4F3D28",
"g@	c #9F7D55",
"h@	c #8C6D4A",
"i@	c #685136",
"              . . . . . . . . . . . . . . . . . . . . . . . . . . . . . . . . . . . . . . . . . . . . . . . . . . . . . . . . . . . . . . . . . . . . . . . . . . . . . . . . . . . . . . . . . . . . . . . . . . . . . . . . . . . . . . . . . . . . . . . . . . . . . . . . . . . . . . . . . . . . . . . . . . . . . . . . . . . . . . . . . . . . . . . . . . . . . . . . . . . . . . . . . .               ",
"          . . . . . . . . . . . . . . . . . . . . . . . . . . . . . . . . . . . . . . . . . . . . . . . . . . . . . . . . . . . . . . . . . . . . . . . . . . . . . . . . . . . . . . . . . . . . . . . . . . . . . . . . . . . . . . . . . . . . . . . . . . . . . . . . . . . . . . . . . . . . . . . . . . . . . . . . . . . . . . . . . . . . . . . . . . . . . . . . . . . . . . . . . . . . . .           ",
"      . . + + + + + + + + + + + + + + + + + + + + + + + + + + + + + + + + + + + + + + + + + + + + + + + + + + + + + + + + + + + + + + + + + + + + + + + + + + + + + + + + + + + + + + + + + + + + + + + + + + + + + + + + + + + + + + + + + + + + + + + + + + + + + + + + + + + + + + + + + + + + + + + + + + + + + + + + + + + + + + + + + + + + + + + + + + + + + + + + + + + + + + + + + + + + + + . .       ",
"    . . + + + + + + + + + + + + + + + + + + + + + + + + + + + + + + + + + + + + + + + + + + + + + + + + + + + + + + + + + + + + + + + + + + + + + + + + + + + + + + + + + + + + + + + + + + + + + + + + + + + + + + + + + + + + + + + + + + + + + + + + + + + + + + + + + + + + + + + + + + + + + + + + + + + + + + + + + + + + + + + + + + + + + + + + + + + + + + + + + + + + + + + + + + + + + + + + . .     ",
"    . + + + + + + + + + + + + + + + + + + + + + + + + + + + + + + + + + @ # $ % % % + + + + + + + + + + & * = - - - ; > , + + + + + + + ' ) ! ~ - - - ; { ] + + + + + + + + + + + ^ . . . . . / + + + + + + + + + + + + + + + + + + + + + ~ . . . . . . . . . . . . . ( + + + + + + + + _ : < [ [ [ } | 1 + + + + 2 3 4 5 6 6 6 7 8 9 + + + + + + + + + + + + + + + + + + + + + + + + + + + + + + + + + + .     ",
"  . + + + + + + + + + + + + + + + + + + + + + + + + + + + + + + + , 0 a b . . . . c % + + + + + + + + ) 6 . . . . . . . d e + + + + + f g . . . . . . . . h i + + + + + + + + + ^ . . . . . . . / + + + + + + + + + + + + + + + + + + + ~ . . . . . . . . . . . . . . . ( + + + + + j a . . . . . . . . ~ 1 + + @ k . . . . . . . . . l m + + + + + + + + + + + + + + + + + + + + + + + + + + + + + + + + + .   ",
"  . + + + + + + + + + + + + + + + + + + + + + + + + + + + + + + n o . . . p q r s . c + + + + + + + ) 6 . t u v w x y z . d e + + + f } . A B C D w E F G . . i + + + + + + + H 6 . I J J J K . / + + + + + + + + + + + + + + + + + + + ~ . D J J J J J J J J J J J L . ( + + + + ( M . . N O x w D P Q . ~ R @ k . S T U V W v X Y . . l m + + + + + + + + + + + + + + + + + + + + + + + + + + + + + + + + .   ",
". . + + + + + + + + + + + + + + + + + + + + + + + + + + + + + n o . Z `  .W J J ... c + + + + + + H 6 . +.@.J J J J J #.t . $.%.+ j } . &.x J J J J J J @.*.. . 3 + + + + + %.=.. -.J J J J K . / + + + + + + + + + + + + + + + + + + + ~ . D J J J J J J J J J J J L . ( + + + ( M . ;. .J J J J J J D >.. ,.8 . p  .J J J J J J J '.).. !.+ + + + + + + + + + + + + + + + + + + + + + + + + + + + + + + + . . ",
". . + + + + + + + + + + + + + + + + + + + + + + + + + + + + + ~.. {.J J J J J J ... c + + + + + + ].. -.J J J J J J J J v ^.. /.+ (.. ;.D J J J J J J J J J T . _.2 + + + + :.. <.[.J D J J K . / + + }.M . . . . 6 < |.; . . . . . 1.2.~ . D J J J J J J J J J J J L . ( + + 3.M . 4.5.J J J J J J J J 6.. 1 . . 7.J J J J J J J J J 8.. - %.+ + + + + + + + + + + + + + + + + + + + + + + + + + + + + + + . . ",
". . + + + + + + + + + + + + + + + + + + + + + + + + + + + + + ~.. O J J J J J J ... c + + + + + ( . . 9.J J 0.a.b.c...J J y . d.e.; . f.J J E g.h.b.i.j.J J k.S . l.+ + + m.. . n.J #.o.J J K . / + }.M . . . . . . . ; . . . . . . . 1.~ . D J p.. . . . . q.E J W 6.. ( + r.g . G 5.J J W s.L t.G p.u.. . v.. Q J J W ` w.x.y.y J J w <.. |.+ + + + + + + + + + + + + + + + + + + + + + + + + + + + + + + . . ",
". . + + + + + + + + + + + + + + + + + + + + + + + + + + + + + ~.. z.5.9.A.t w J ... c + + + + + B.. c.J J C.x.. . . D.E.J w <.. F.; . E J w Z . . . . >.9.J J G.. f + + H.d.. T J J I.J.J J K . / + < . +.5.J J @...Z . 4.E J J J K.L.. ~ . M.J K . . . . . N.J J O.. P.Q.+ }.. R.x J J p.S.. . . . . . . : v.. T.J J A.. . . . .  .J J c.. |.+ + + + + + + + + + + + + + + + + + + + + + + + + + + + + + + . . ",
". . + + + + + + + + + + + + + + + + + + + + + + + + + + + + + U.V.. . . . . w J ... c + + + + + W.. K J J X.. Y.|.[ . y J J Z.. ) ; . `. +.+. - ++@+#+. '.J J $+. f + 2 %+. &+ +J *+=+J.J J K . / + < . C.J J J J J -+. f.J J J J J O . l . . . . . / ;+V.. f.J J >+. ,++ + '+. )+J J [.!+. . . . . ~+{+: + v.. ]+J J ^+. . . . .  .J J G . |.+ + + + + + + + + + + + + + + + + + + + + + + + + + + + + + + . . ",
". . + + + + + + + + + + + + + + + + + + + + + + + + + + + + + + U.V.V.V.~+. w J ... c + + + + + 8 . /+J J (+. _++ :+. <+J J [+. / }+d.. . . - |+1+2+. z  +J w 3+. f + 4+. =+C J @.5+. J.J J K . / + < . B E.J J J E.6+. 7+J J J J D 8+. l 9+. . . / + # . 0+5.J #.A . a++ + b+. c+J J Z.d+e+E.k.'.f+. g+# + h+. i+E.J W -+!+0+(+M.J J E S . 3.+ + + + + + + + + + + + + + + + + + + + + + + + + + + + + + + . . ",
". . + + + + + + + + + + + + + + + + + + + + + + + + + + + + + + + + + + ~+. w J ... c + + + + + 8 . X J J h.. j++ ++. J.J J K . / + }+d.d.d.|+/ o . G.[.J J M.. g+@ k+P.. .+J J l+. . J.J J K . m+@ ) n+. i+C J J E.]+. o+J J J f.=+. ~ p++ + + + + + * . Z.J J '.. b+' + R . .  +J  +q+J J J J J E.Z.. g+3.r+2+. o.J J J J J J J J @.8+. s+t++ + + + + + + + + + + + + + + + + + + + + + + + + + + + + + + . . ",
". . + + + + + + + + + + + + + + + + + + + + + + + + + + + + + + + + + + ~+. w J ... c + + + + + 8 . P J J h.. u++ v+. J.J J K . / + + + + u+a . . J. +J J s 0+. w++ x+. y+W J K.z+. . J.J J K . . m+@ ) n+. A+u J J J c+J J J .+. . ~ p++ + + + + + %.- . B+J J 8+. l + + R . C+J J J J J J J J J J w a.. 8 + D+. =+E+J J J J J J J F+. . G++ + + + + + + + + + + + + + + + + + + + + + + + + + + + + + + + . . ",
". . + + + + + + + + + + + + + + + + + + + + + + + + + + + + + + + + + + ~+. w J ... c + + + + + 8 . X J J h.. j++ ++. J.J J K . / + + + H+I+. S J+J J J O 0+. K+R + = . 9.J J J J J J J J J J *+L+. ( + r+M+. S l+J J J J W T.. . (.2 + + + + + + + n . t.w J v =+. p++ + R . q.@.J J J x 7+p y+E+J J X . g+2.. . F J J J J J J J J J *.. P.N++ + + + + + + + + + + + + + + + + + + + + + + + + + + + + + + . . ",
". . + + + + + + + + + + + + + + + + + + + + + + + + + + + + + + + + + + ~+. w J ... c + + + + + 8 . n.J J y.. v.+ 9+. g.J J *.. / + 2 O+h . ^.j.J J W I.. . K+R + + = . v J J J J J J J J J J J L . ( + + _ d . P+k.J J J Q+R.. g R++ + + + + + + + M+. S+J J T+. I+2 + + t+h . D J J x h.. . . U+V J w 0+. 9+. L.J J w V+&+A+W+l+J J W D.. X++ + + + + + + + + + + + + + + + + + + + + + + + + + + + + + + . . ",
". . + + + + + + + + + + + + + + + + + + + + + + + + + + + + + + + + + + ~+. w J ... c + + + + + Y+. A.J J T.. Z+H+b+. M.J J Z.. G+u+4 . . `+[.J J K.c.. . { m + + + = . v J J J J J J J J J J *+L+. ( + # ~+. y.x J J J J J  @6.. d |.+ + + + + + .@o . C J J $+. +@+ + + + } . @@J J #@. g 9 d . P J J $@. ~.. M.J J {.. . . . . %@J J +.. 4++ + + + + + + + + + + + + + + + + + + + + + + + + + + + + + + . . ",
". . + + + + + + + + + + + + + + + + + + + + + + + + + + + + + + &@b . . . . w J ... . . . d.f + |+. 4.J J *@x.. . . D.#.J w i+. # 4 . q.*.W J J j.U+. . . . . =@N++ = . . . . . . . . J.J J K . . -@;@x+. . t V J J *@g.5.J J x f+. 6 >@r.+ + + + 4+. ,@J J p.. . f + + + + '@. )@J J !@. . . . . *+J J P+. ~.. F+J J ~@. . . . . g.J J V+. 4++ + + + + + + + + + + + + + + + + + + + + + + + + + + + + + + . . ",
". . + + + + + + + + + + + + + + + + + + + + + + + + + + + + + &@b . . . . . w J ... . . . . d.f ] . . e+J J j.G.A -.p.J J F . g+O+. P+s J J W *.q.. . . . . . . =@N++ = . . . . . . . J.J J K . . m+x+. . {@w J J C t.. S.[.J J V 4.. . >@r.+ + + ]@. .+J J .+. =@+ + + + + ^@. /@J J J (@w.C+Z y J J [.. . ~.. V+J J 9._@^.>.P+#@k.J J Z.. 4++ + + + + + + + + + + + + + + + + + + + + + + + + + + + + + + . . ",
". . + + + + + + + + + + + + + + + + + + + + + + + + + + + + + :@. <@W J J J J J J J J J  +$+. [@+ }@. `+@.J J J J J J J  +w.. Y+O+. J+J J J J J J J J J J J [.|@. p++ + + + 1@. <.*+J J J J J *+L+. . 2@9.J J J J [.W+. 3@ +J J J J c+R.. _ + + j . . p.J J 4@. |++ + + + + R+h . /+J J J J J J J J J -+. =.4+. 2@#.J J J J J J J J J x C+. # + + + + + + + + + + + + + + + + + + + + + + + + + + + + + + + . . ",
". . + + + + + + + + + + + + + + + + + + + + + + + + + + + + + :@. q+J J J J J J J J J J J `.. [@+ ] b . +.J J J J J J E.z.. d.5@O+. J+J J J J J J J J J J J J 8+. p++ + + + 1@. 6@J J J J J J J L . . <+J J J J J J -+. y J J J J J J t . _ + + j . &+J J C . o , + + + + + + 7@. p C J J J J J J J F q.. 8@;@b+. 6@V J J J J J J J x f+. g R + + + + + + + + + + + + + + + + + + + + + + + + + + + + + + + . . ",
". . + + + + + + + + + + + + + + + + + + + + + + + + + + + + + :@. <@W J J J J J J J J J  +$+. [@+ + 9@h . 3@7.k.w [.r 4@. [ 1@+ O+. J+J J J J J J J J J J J J 8+. p++ + + + 1@. <.*+J J J J J *+L+. . 2@*+@.J J @.*@(+. -.[.J J J W 0.R.. _ + + j . >.U v 6@. ! + + + + + + + @ %+. >.g.U K.W D O.0@. . Y+t++ 1@b+. t.(@Q+D w k.s S+0+. g R++ + + + + + + + + + + + + + + + + + + + + + + + + + + + + + + + . . ",
"  . + + + + + + + + + + + + + + + + + + + + + + + + + + + + + &@b . . . . . . . . . . . . . d.f + + + 9@h . . . . . . . [ 1@+ + O+. . . . . . . . . . . . . . . . p++ + + + %.m+. . . . . . . . . -@x+. . . . . . . . $.. . . . . . . . >@r.+ + R a@. . . . I+H++ + + + + + + + @ %+. . . . . . . . . Y+t++ + + 1@d . . . . . . . . . b@R++ + + + + + + + + + + + + + + + + + + + + + + + + + + + + + + + + .   ",
"  . + + + + + + + + + + + + + + + + + + + + + + + + + + + + + + &@b . . . . . . . . . . . d.f + + + + + ( c@d@g+g+g+e@(., + + + + O+. . . . . . . . . . . . . . p++ + + + + + %.m+. . . . . . . -@@ ;@x+h . . . . 6 f@H $.. . . . . b >@r.+ + + + R a@I+I+I+H++ + + + + + + + + + m a+4 1.b b b 7 | g@+ + + + + + r+h@}@7 b b b d@i@n ;++ + + + + + + + + + + + + + + + + + + + + + + + + + + + + + + + + + .   ",
"    . + + + + + + + + + + + + + + + + + + + + + + + + + + + + + + + + + + + + + + + + + + + + + + + + + + + + + + + + + + + + + + + + + + + + + + + + + + + + + + + + + + + + + + + + + + + + + + + + + + + + + + + + + + + + + + + + + + + + + + + + + + + + + + + + + + + + + + + + + + + + + + + + + + + + + + + + + + + + + + + + + + + + + + + + + + + + + + + + + + + + + + + + + + + + + + + + + + .     ",
"    . . + + + + + + + + + + + + + + + + + + + + + + + + + + + + + + + + + + + + + + + + + + + + + + + + + + + + + + + + + + + + + + + + + + + + + + + + + + + + + + + + + + + + + + + + + + + + + + + + + + + + + + + + + + + + + + + + + + + + + + + + + + + + + + + + + + + + + + + + + + + + + + + + + + + + + + + + + + + + + + + + + + + + + + + + + + + + + + + + + + + + + + + + + + + + + + + + . .     ",
"      . . + + + + + + + + + + + + + + + + + + + + + + + + + + + + + + + + + + + + + + + + + + + + + + + + + + + + + + + + + + + + + + + + + + + + + + + + + + + + + + + + + + + + + + + + + + + + + + + + + + + + + + + + + + + + + + + + + + + + + + + + + + + + + + + + + + + + + + + + + + + + + + + + + + + + + + + + + + + + + + + + + + + + + + + + + + + + + + + + + + + + + + + + + + + + + + . .       ",
"          . . . . . . . . . . . . . . . . . . . . . . . . . . . . . . . . . . . . . . . . . . . . . . . . . . . . . . . . . . . . . . . . . . . . . . . . . . . . . . . . . . . . . . . . . . . . . . . . . . . . . . . . . . . . . . . . . . . . . . . . . . . . . . . . . . . . . . . . . . . . . . . . . . . . . . . . . . . . . . . . . . . . . . . . . . . . . . . . . . . . . . . . . . . . . .           ",
"              . . . . . . . . . . . . . . . . . . . . . . . . . . . . . . . . . . . . . . . . . . . . . . . . . . . . . . . . . . . . . . . . . . . . . . . . . . . . . . . . . . . . . . . . . . . . . . . . . . . . . . . . . . . . . . . . . . . . . . . . . . . . . . . . . . . . . . . . . . . . . . . . . . . . . . . . . . . . . . . . . . . . . . . . . . . . . . . . . . . . . . . . . .               "};
