/* XPM */
static xpm_string_t _320x200_xpm[] = {
"200 30 260 2",
"  	c None",
". 	c #000000",
"+ 	c #BC9466",
"@ 	c #B89163",
"# 	c #90714D",
"$ 	c #624C32",
"% 	c #362919",
"& 	c #382A1A",
"* 	c #685136",
"= 	c #9C7A54",
"- 	c #B89164",
"; 	c #91724D",
"> 	c #5E4930",
", 	c #1C140A",
"' 	c #453422",
") 	c #775D3F",
"! 	c #AA865C",
"~ 	c #A6835A",
"{ 	c #6F563A",
"] 	c #3D2F1D",
"^ 	c #7C6141",
"/ 	c #B08A5F",
"( 	c #443321",
"_ 	c #72583B",
": 	c #BA9365",
"< 	c #A9855B",
"[ 	c #483723",
"} 	c #120B05",
"| 	c #8D6E4B",
"1 	c #0D0803",
"2 	c #352818",
"3 	c #A8845A",
"4 	c #392B1B",
"5 	c #3D3D3D",
"6 	c #B0B0B0",
"7 	c #E1E1E1",
"8 	c #F6F6F6",
"9 	c #FDFDFD",
"0 	c #DDDDDD",
"a 	c #9C9C9C",
"b 	c #3B3B3B",
"c 	c #E4E4E4",
"d 	c #FCFCFC",
"e 	c #F1F1F1",
"f 	c #D0D0D0",
"g 	c #797979",
"h 	c #858585",
"i 	c #D7D7D7",
"j 	c #F5F5F5",
"k 	c #F0F0F0",
"l 	c #CBCBCB",
"m 	c #6A6A6A",
"n 	c #B58E62",
"o 	c #818181",
"p 	c #F2F2F2",
"q 	c #FFFFFF",
"r 	c #D5D5D5",
"s 	c #222222",
"t 	c #846746",
"u 	c #B28C60",
"v 	c #7D7D7D",
"w 	c #FEFEFE",
"x 	c #B6B6B6",
"y 	c #987751",
"z 	c #A58159",
"A 	c #AFAFAF",
"B 	c #FAFAFA",
"C 	c #423320",
"D 	c #B68F63",
"E 	c #A38057",
"F 	c #4D4D4D",
"G 	c #F7F7F7",
"H 	c #C2C2C2",
"I 	c #22180D",
"J 	c #7B6041",
"K 	c #5F5F5F",
"L 	c #A4A4A4",
"M 	c #3F301E",
"N 	c #BB9365",
"O 	c #54412A",
"P 	c #8A8A8A",
"Q 	c #4F4F4F",
"R 	c #806443",
"S 	c #92724E",
"T 	c #302416",
"U 	c #523F29",
"V 	c #A68259",
"W 	c #41321F",
"X 	c #8E8E8E",
"Y 	c #A7A7A7",
"Z 	c #535353",
"` 	c #2E2E2E",
" .	c #696969",
"..	c #FBFBFB",
"+.	c #A8845B",
"@.	c #CDCDCD",
"#.	c #A1A1A1",
"$.	c #565656",
"%.	c #828282",
"&.	c #F4F4F4",
"*.	c #161616",
"=.	c #AD885D",
"-.	c #A58259",
";.	c #EAEAEA",
">.	c #787878",
",.	c #868686",
"'.	c #EBEBEB",
").	c #2E2215",
"!.	c #E7E7E7",
"~.	c #EFEFEF",
"{.	c #707070",
"].	c #686868",
"^.	c #262626",
"/.	c #727272",
"(.	c #876947",
"_.	c #ECECEC",
":.	c #323232",
"<.	c #606060",
"[.	c #494949",
"}.	c #F8F8F8",
"|.	c #878787",
"1.	c #F3F3F3",
"2.	c #8F8F8F",
"3.	c #A07D56",
"4.	c #5A462E",
"5.	c #261C10",
"6.	c #DADADA",
"7.	c #7C7C7C",
"8.	c #C1C1C1",
"9.	c #F9F9F9",
"0.	c #BBBBBB",
"a.	c #9A7852",
"b.	c #2C2114",
"c.	c #D1D1D1",
"d.	c #7E7E7E",
"e.	c #73593C",
"f.	c #BEBEBE",
"g.	c #A6A6A6",
"h.	c #513E29",
"i.	c #281E11",
"j.	c #9B9B9B",
"k.	c #B2B2B2",
"l.	c #D2D2D2",
"m.	c #4B3A25",
"n.	c #5C5C5C",
"o.	c #C6C6C6",
"p.	c #2A2A2A",
"q.	c #856846",
"r.	c #8A6C49",
"s.	c #9B7A53",
"t.	c #241A0F",
"u.	c #454545",
"v.	c #6C5438",
"w.	c #D4D4D4",
"x.	c #6C6C6C",
"y.	c #977751",
"z.	c #7D6142",
"A.	c #A3A3A3",
"B.	c #B7B7B7",
"C.	c #757575",
"D.	c #979797",
"E.	c #919191",
"F.	c #755B3E",
"G.	c #886A48",
"H.	c #ABABAB",
"I.	c #BA9265",
"J.	c #060402",
"K.	c #CACACA",
"L.	c #1F160C",
"M.	c #B79063",
"N.	c #AF895E",
"O.	c #949494",
"P.	c #9D9D9D",
"Q.	c #B8B8B8",
"R.	c #1C1C1C",
"S.	c #A27F57",
"T.	c #E2E2E2",
"U.	c #866847",
"V.	c #B48D61",
"W.	c #644E34",
"X.	c #DEDEDE",
"Y.	c #816544",
"Z.	c #DBDBDB",
"`.	c #A07E56",
" +	c #353535",
".+	c #C0C0C0",
"++	c #9D7B54",
"@+	c #A48158",
"#+	c #3C2D1D",
"$+	c #BCBCBC",
"%+	c #6B5337",
"&+	c #B68F62",
"*+	c #604A31",
"=+	c #C8C8C8",
"-+	c #2B1F12",
";+	c #0D0D0D",
">+	c #C4C4C4",
",+	c #675035",
"'+	c #896B49",
")+	c #B3B3B3",
"!+	c #6D6D6D",
"~+	c #977651",
"{+	c #7E6242",
"]+	c #A7835A",
"^+	c #555555",
"/+	c #E5E5E5",
"(+	c #383838",
"_+	c #AE895E",
":+	c #BB9366",
"<+	c #6D5438",
"[+	c #40311F",
"}+	c #876A48",
"|+	c #8D8D8D",
"1+	c #654E34",
"2+	c #848484",
"3+	c #785D3F",
"4+	c #503E28",
"5+	c #8D6F4B",
"6+	c #E6E6E6",
"7+	c #515151",
"8+	c #4D3B26",
"9+	c #B18B60",
"0+	c #EDEDED",
"a+	c #55412B",
"b+	c #6E6E6E",
"c+	c #634C33",
"d+	c #B38D61",
"e+	c #D9D9D9",
"f+	c #B9B9B9",
"g+	c #5D5D5D",
"h+	c #E0E0E0",
"i+	c #E8E8E8",
"j+	c #EEEEEE",
"k+	c #4B4B4B",
"l+	c #737373",
"m+	c #585858",
"n+	c #838383",
"o+	c #70573A",
"p+	c #636363",
"q+	c #5D4830",
"r+	c #5A5A5A",
"s+	c #8C8C8C",
"t+	c #A0A0A0",
"u+	c #191109",
"v+	c #997852",
"w+	c #B28C61",
"x+	c #72593C",
"y+	c #BABABA",
"z+	c #9A7953",
"A+	c #967550",
"B+	c #CECECE",
"C+	c #A48058",
"D+	c #E9E9E9",
"E+	c #765C3E",
"F+	c #322517",
"G+	c #8B6C4A",
"H+	c #B48E62",
"I+	c #6D5539",
"J+	c #463522",
"K+	c #4F3D28",
"              . . . . . . . . . . . . . . . . . . . . . . . . . . . . . . . . . . . . . . . . . . . . . . . . . . . . . . . . . . . . . . . . . . . . . . . . . . . . . . . . . . . . . . . . . . . . . . . . . . . . . . . . . . . . . . . . . . . . . . . . . . . . . . . . . . . . . . . . . . . . . . . . . . . . . . . . . . . . . . . . . . . . . . . . . . . . . . . . . . . . . . . . . .               ",
"          . . . . . . . . . . . . . . . . . . . . . . . . . . . . . . . . . . . . . . . . . . . . . . . . . . . . . . . . . . . . . . . . . . . . . . . . . . . . . . . . . . . . . . . . . . . . . . . . . . . . . . . . . . . . . . . . . . . . . . . . . . . . . . . . . . . . . . . . . . . . . . . . . . . . . . . . . . . . . . . . . . . . . . . . . . . . . . . . . . . . . . . . . . . . . .           ",
"      . . + + + + + + + + + + + + + + + + + + + + + + + + + + + + + + + + + + + + + + + + + + + + + + + + + + + + + + + + + + + + + + + + + + + + + + + + + + + + + + + + + + + + + + + + + + + + + + + + + + + + + + + + + + + + + + + + + + + + + + + + + + + + + + + + + + + + + + + + + + + + + + + + + + + + + + + + + + + + + + + + + + + + + + + + + + + + + + + + + + + + + + + + + + + + + + . .       ",
"    . . + + + + + + + + + + + + + + + + + + + + + + + + + + + + + + + + + + + + + + + + + + + + + + + + + + + + + + + + + + + + + + + + + + + + + + + + + + + + + + + + + + + + + + + + + + + + + + + + + + + + + + + + + + + + + + + + + + + + + + + + + + + + + + + + + + + + + + + + + + + + + + + + + + + + + + + + + + + + + + + + + + + + + + + + + + + + + + + + + + + + + + + + + + + + + + + + . .     ",
"    . + + + + + + + + + + + + + + + + + + + + + + + + + + + + + + + + + + + + + + + + @ # $ % . . . & * = + + + + + + + - ; > & , , , ' ) ! + + + + + + + + ~ { ] , , , ' ^ / + + + + + + + + + + + + + + + + + + + + + + + + - ; > & , , , ' ) ! + + + + + + + + ~ { ] , , , ' ^ / + + + + + + + + ~ { ] , , , ' ^ / + + + + + + + + + + + + + + + + + + + + + + + + + + + + + + + + + + + + + + + + + + .     ",
"  . + + + + + + + + + + + + + + + + + + + + + + + + + + + + + + + + + + + + + + + + ! ( . . . . . . . . . _ : + + + + < [ . . . . . . . . } | + + + + + + ; 1 . . . . . . . 2 3 + + + + + + + + + + + + + + + + + + + + + + < [ . . . . . . . . } | + + + + + + ; 1 . . . . . . . 2 3 + + + + + + ; 1 . . . . . . . 2 3 + + + + + + + + + + + + + + + + + + + + + + + + + + + + + + + + + + + + + + + + + + .   ",
"  . + + + + + + + + + + + + + + + + + + + + + + + + + + + + + + + + + + + + + + + ! 4 . 5 6 7 8 9 8 0 a . . _ : + + < 4 . b 6 c 8 d e f g . . | + + + + ; 1 . h i j d k l m . 2 3 + + + + + + + + + + + + + + + + + + + + < 4 . b 6 c 8 d e f g . . | + + + + ; 1 . h i j d k l m . 2 3 + + + + ; 1 . h i j d k l m . 2 3 + + + + + + + + + + + + + + + + + + + + + + + + + + + + + + + + + + + + + + + + + .   ",
". . + + + + + + + + + + + + + + + + + + + + + + + + + + + + + + + + + + + + + + n 4 . o p q q q q q q q r s . t + u 4 . v k q q q q q q w x . . y + + z 1 . A w q q q q q B h . C D + + + + + + + + + + + + + + + + + + u 4 . v k q q q q q q w x . . y + + z 1 . A w q q q q q B h . C D + + z 1 . A w q q q q q B h . C D + + + + + + + + + + + + + + + + + + + + + + + + + + + + + + + + + + + + + + + + . . ",
". . + + + + + + + + + + + + + + + + + + + + + + + + + + + + + + + + + + + + + + E . F G q q q q q q q q q H . I @ J . K 8 q q q q q q q q q L . M N + O . P q q q q q q q q j Q . R + S T . . . . 1 U V ' . . . . . W E J . K 8 q q q q q q q q q L . M N + O . P q q q q q q q q j Q . R + + O . P q q q q q q q q j Q . R + + + + + + + + + + + + + + + + + + + + + + + + + + + + + + + + + + + + + + + + . . ",
". . + + + + + + + + + + + + + + + + + + + + + + + + + + + + + + + + + + + + + + E . X q q 8 Y Z `  .H q q ..5 . +.' . @.q q e #.$.5 %.0 q q &.*.. =.-.. . ;.q q 7 >.5 ,.'.q q l . ).S T . . . . . . . ' . . . . . . . W ' . @.q q e #.$.5 %.0 q q &.*.. =.-.. . ;.q q 7 >.5 ,.'.q q l . ).@ -.. . ;.q q 7 >.5 ,.'.q q l . ).@ + + + + + + + + + + + + + + + + + + + + + + + + + + + + + + + + + + + + + + + . . ",
". . + + + + + + + + + + + + + + + + + + + + + + + + + + + + + + + + + + + + + + E . b !.~.{.. . . . . i q q o . +.' . e q d ].. . . . ^.;.q q /.. < (.. ,.q q _.:.. . . <...q d [.. U . A }.q q w '.].. |.e q q q 1.2.. ' . e q d ].. . . . ^.;.q q /.. < (.. ,.q q _.:.. . . <...q d [.. 3.(.. ,.q q _.:.. . . <...q d [.. 3.+ + + + + + + + + + + + + + + + + + + + + + + + + + + + + + + + + + + + + + + . . ",
". . + + + + + + + + + + + + + + + + + + + + + + + + + + + + + + + + + + + + + + - 4.. . . . 5.. . . . 6.q q 7.. +.' . 8.9.0.. , a.+.b.. c.q q d.. < e.. f.q q g.. h.V i.. l q q j.. U . _.q q q q q k.. @.q q q q q l.. ' . 8.9.0.. , a.+.b.. c.q q d.. < e.. f.q q g.. h.V i.. l q q j.. ; e.. f.q q g.. h.V i.. l q q j.. ; + + + + + + + + + + + + + + + + + + + + + + + + + + + + + + + + + + + + + + + . . ",
". . + + + + + + + + + + + + + + + + + + + + + + + + + + + + + + + + + + + + + + + - 4.m.m.5.. . . n.o.q q G p.. ! q.).. . . , r.s.t.. m 9.q d u.. < v.. w.q q x.. y.+ z.. A.q q B.. U . 6 ..q q q ..C.. D.q q q q 8 E.. F.).. . . , r.s.t.. m 9.q d u.. < v.. w.q q x.. y.+ z.. A.q q B.. G.v.. w.q q x.. y.+ z.. A.q q B.. G.+ + + + + + + + + + + + + + + + + + + + + + + + + + + + + + + + + + + + + + + . . ",
". . + + + + + + + + + + + + + + + + + + + + + + + + + + + + + + + + + + + + + + + + + + $ . A...q q q q q H.. % I.+ q.).).).r.G.J.. /.p q q K.. L.M.v.. 6.q q $.. N.+ a.. O.q q f.. G.5.. F c q q ..P.. Q.q q q @.R.. & S.q.).).).r.G.J.. /.p q q K.. L.M.v.. 6.q q $.. N.+ a.. O.q q f.. G.v.. 6.q q $.. N.+ a.. O.q q f.. G.+ + + + + + + + + + + + + + + + + + + + + + + + + + + + + + + + + + + + + + + . . ",
". . + + + + + + + + + + + + + + + + + + + + + + + + + + + + + + + + + + + + + + + + + + $ . T.q q q q q 6.. . U.+ + + + + V.W.. . O.9.q q X.` . Y.+ v.. Z.q q $.. V.+ `.. O.q q f.. G.; 5..  +i q q q T.q q q 0.. . & S.+ + + + V.W.. . O.9.q q X.` . Y.+ v.. Z.q q $.. V.+ `.. O.q q f.. G.v.. Z.q q $.. V.+ `.. O.q q f.. G.+ + + + + + + + + + + + + + + + + + + + + + + + + + + + + + + + + + + + + + + . . ",
". . + + + + + + + + + + + + + + + + + + + + + + + + + + + + + + + + + + + + + + + + + + $ . g.B q q q q q .+. . +++ + + @+#+. *.$+q q q l.` . %+I.+ v.. 6.q q $.. N.+ a.. O.q q f.. G.+ &+*+. *.=+q q q q 9 Y . . J N + + + + @+#+. *.$+q q q l.` . %+I.+ v.. 6.q q $.. N.+ a.. O.q q f.. G.v.. 6.q q $.. N.+ a.. O.q q f.. G.+ + + + + + + + + + + + + + + + + + + + + + + + + + + + + + + + + + + + + + + . . ",
". . + + + + + + + + + + + + + + + + + + + + + + + + + + + + + + + + + + + + + + + + + + y.-+. ;+u.7.>+d q q j.. ,++ N '+} . Q 0 q q 9 )+. . %+I.+ + v.. r q q !+. ~++ {+. #.q q x . G.+ + ]+2 . ^+&.q q q /+(+. [ _++ + + N '+} . Q 0 q q 9 )+. . %+I.+ + v.. r q q !+. ~++ {+. #.q q x . G.v.. r q q !+. ~++ {+. #.q q x . G.+ + + + + + + + + + + + + + + + + + + + + + + + + + + + + + + + + + + + + + + . . ",
". . + + + + + + + + + + + + + + + + + + + + + + + + + + + + + + + + + + + + + + :+<+[+[+[+}+-+. . . . |+q q X.. h.V.1+. . 2+p q q 1.,.. . ) : + + + 3+. .+q q Y . 4+@+-+. K.q q j.. 5++ ++I . !+k q q q q q 6+Z . 2 V + V.1+. . 2+p q q 1.,.. . ) : + + + 3+. .+q q Y . 4+@+-+. K.q q j.. 5+3+. .+q q Y . 4+@+-+. K.q q j.. 5++ + + + + + + + + + + + + + + + + + + + + + + + + + + + + + + + + + + + + + + . . ",
". . + + + + + + + + + + + + + + + + + + + + + + + + + + + + + + + + + + + + + :+<+. . . . . . . . . . ` d q _.. h.1+. ;+x 9 q q 0 7+. . . . . 8+9++ r.. |.q q 0+:.. . . <.B q d F . ++a+. . h G q q 0+#.}.q q k b+. 1 c+1+. ;+x 9 q q 0 7+. . . . . 8+9++ r.. |.q q 0+:.. . . <.B q d F . ++r.. |.q q 0+:.. . . <.B q d F . +++ + + + + + + + + + + + + + + + + + + + + + + + + + + + + + + + + + + + + + + . . ",
". . + + + + + + + + + + + + + + + + + + + + + + + + + + + + + + + + + + + + + d+. ;+e+8 f+m  +;+` g+O.h+q q i . h.. ^+X.q q 9 x ;+. . . . . . . 8+9+! . . i+q q 0 /.b P j+q q f . L.a+. . a d q q c k+. l+p q q G |.. . . ^+X.q q 9 x ;+. . . . . . . 8+9+! . . i+q q 0 /.b P j+q q f . L.&+! . . i+q q 0 /.b P j+q q f . L.&++ + + + + + + + + + + + + + + + + + + + + + + + + + + + + + + + + + + + + + + . . ",
". . + + + + + + + + + + + + + + + + + + + + + + + + + + + + + + + + + + + + + d+. m+q q q q q q q q q q q w n+. o+. $+q q q q q q q q q q q p p+. S.+ q+. 2+w q q q q q q q 9.g+. 3+. r+;.q q q q p {.. s+9.q q q q T.(+. $+q q q q q q q q q q q p p+. S.+ q+. 2+w q q q q q q q 9.g+. 3++ + q+. 2+w q q q q q q q 9.g+. 3++ + + + + + + + + + + + + + + + + + + + + + + + + + + + + + + + + + + + + + + + . . ",
". . + + + + + + + + + + + + + + + + + + + + + + + + + + + + + + + + + + + + + d+. . r q q q q q q q q q ..t+. 1 '+. $+q q q q q q q q q q q q E.. S.+ ! u+. A q q q q q q ..X . ).v+. A.q q q q q q k.. l q q q q q q h . $+q q q q q q q q q q q q E.. S.+ ! u+. A q q q q q q ..X . ).w++ + ! u+. A q q q q q q ..X . ).w++ + + + + + + + + + + + + + + + + + + + + + + + + + + + + + + + + + + + + + + + . . ",
". . + + + + + + + + + + + + + + + + + + + + + + + + + + + + + + + + + + + + + + x+. . O.l.0+B w B p X.y+^+. 1 z+'+. $+q q q q q q q q q q q q E.. S.+ + A+} . s+e+&.d p B+ .. i.C+v+. r+D+w q q w 0+x.. P p q q q 9 7 (+. $+q q q q q q q q q q q q E.. S.+ + A+} . s+e+&.d p B+ .. i.C++ + + + A+} . s+e+&.d p B+ .. i.C++ + + + + + + + + + + + + + + + + + + + + + + + + + + + + + + + + + + + + + + + + . . ",
"  . + + + + + + + + + + + + + + + + + + + + + + + + + + + + + + + + + + + + + + + x+. . . . . . . . . . . i.z++ '+. . . . . . . . . . . . . . . . S.+ + + A+} . . . . . . . i.C++ d+a+. . . . . . . . C . . . . . . . . . . . . . . . . . . . . . . . . S.+ + + A+} . . . . . . . i.C++ + + + + + A+} . . . . . . . i.C++ + + + + + + + + + + + + + + + + + + + + + + + + + + + + + + + + + + + + + + + + + .   ",
"  . + + + + + + + + + + + + + + + + + + + + + + + + + + + + + + + + + + + + + + + + `.E+4+F+. . . b.( ,+G+H++ + + '+. . . . . . . . . . . . . . S.+ + + + + -.I+[+L.L.L.J+J / + + + d+a+} . . . . 1 K+z C . . . . . u+c+'+. . . . . . . . . . . . . . S.+ + + + + -.I+[+L.L.L.J+J / + + + + + + + + -.I+[+L.L.L.J+J / + + + + + + + + + + + + + + + + + + + + + + + + + + + + + + + + + + + + + + + + + + + .   ",
"    . + + + + + + + + + + + + + + + + + + + + + + + + + + + + + + + + + + + + + + + + + + + + + + + + + + + + + + + + + + + + + + + + + + + + + + + + + + + + + + + + + + + + + + + + + + + + + + + + + + + + + + + + + + + + + + + + + + + + + + + + + + + + + + + + + + + + + + + + + + + + + + + + + + + + + + + + + + + + + + + + + + + + + + + + + + + + + + + + + + + + + + + + + + + + + + + + + + .     ",
"    . . + + + + + + + + + + + + + + + + + + + + + + + + + + + + + + + + + + + + + + + + + + + + + + + + + + + + + + + + + + + + + + + + + + + + + + + + + + + + + + + + + + + + + + + + + + + + + + + + + + + + + + + + + + + + + + + + + + + + + + + + + + + + + + + + + + + + + + + + + + + + + + + + + + + + + + + + + + + + + + + + + + + + + + + + + + + + + + + + + + + + + + + + + + + + + + + + . .     ",
"      . . + + + + + + + + + + + + + + + + + + + + + + + + + + + + + + + + + + + + + + + + + + + + + + + + + + + + + + + + + + + + + + + + + + + + + + + + + + + + + + + + + + + + + + + + + + + + + + + + + + + + + + + + + + + + + + + + + + + + + + + + + + + + + + + + + + + + + + + + + + + + + + + + + + + + + + + + + + + + + + + + + + + + + + + + + + + + + + + + + + + + + + + + + + + + + + . .       ",
"          . . . . . . . . . . . . . . . . . . . . . . . . . . . . . . . . . . . . . . . . . . . . . . . . . . . . . . . . . . . . . . . . . . . . . . . . . . . . . . . . . . . . . . . . . . . . . . . . . . . . . . . . . . . . . . . . . . . . . . . . . . . . . . . . . . . . . . . . . . . . . . . . . . . . . . . . . . . . . . . . . . . . . . . . . . . . . . . . . . . . . . . . . . . . . .           ",
"              . . . . . . . . . . . . . . . . . . . . . . . . . . . . . . . . . . . . . . . . . . . . . . . . . . . . . . . . . . . . . . . . . . . . . . . . . . . . . . . . . . . . . . . . . . . . . . . . . . . . . . . . . . . . . . . . . . . . . . . . . . . . . . . . . . . . . . . . . . . . . . . . . . . . . . . . . . . . . . . . . . . . . . . . . . . . . . . . . . . . . . . . . .               "};
