/* XPM */
static xpm_string_t options_xpm[] = {
"200 30 237 2",
"  	c None",
". 	c #000000",
"+ 	c #BC9466",
"@ 	c #B99264",
"# 	c #94744F",
"$ 	c #664F34",
"% 	c #392B1B",
"& 	c #160F07",
"* 	c #40311F",
"= 	c #6F563A",
"- 	c #9D7B54",
"; 	c #B48D61",
"> 	c #4C3A26",
", 	c #22180D",
"' 	c #473623",
") 	c #775D3F",
"! 	c #A9845B",
"~ 	c #765C3E",
"{ 	c #9C7A53",
"] 	c #120B05",
"^ 	c #332618",
"/ 	c #AB875C",
"( 	c #B89163",
"_ 	c #5B462E",
": 	c #0D0803",
"< 	c #A7835A",
"[ 	c #8F704C",
"} 	c #241A0F",
"| 	c #A58159",
"1 	c #B68F63",
"2 	c #8B6D4A",
"3 	c #5C472F",
"4 	c #2E2215",
"5 	c #1C140A",
"6 	c #72583B",
"7 	c #41321F",
"8 	c #AF895E",
"9 	c #5D4830",
"0 	c #B28C60",
"a 	c #060402",
"b 	c #876947",
"c 	c #A8845A",
"d 	c #3D2F1D",
"e 	c #A38058",
"f 	c #2E2E2E",
"g 	c #AAAAAA",
"h 	c #DEDEDE",
"i 	c #F6F6F6",
"j 	c #FCFCFC",
"k 	c #F3F3F3",
"l 	c #D7D7D7",
"m 	c #9B9B9B",
"n 	c #0D0D0D",
"o 	c #3B2C1C",
"p 	c #565656",
"q 	c #EEEEEE",
"r 	c #FFFFFF",
"s 	c #FBFBFB",
"t 	c #EFEFEF",
"u 	c #D0D0D0",
"v 	c #808080",
"w 	c #F1F1F1",
"x 	c #D2D2D2",
"y 	c #6C5438",
"z 	c #9D9D9D",
"A 	c #FEFEFE",
"B 	c #F7F7F7",
"C 	c #787878",
"D 	c #896B49",
"E 	c #404040",
"F 	c #E6E6E6",
"G 	c #838383",
"H 	c #4E3C27",
"I 	c #B3B3B3",
"J 	c #898989",
"K 	c #7D6142",
"L 	c #322517",
"M 	c #4B4B4B",
"N 	c #B9B9B9",
"O 	c #F8F8F8",
"P 	c #D5D5D5",
"Q 	c #858585",
"R 	c #C5C5C5",
"S 	c #F2F2F2",
"T 	c #6C6C6C",
"U 	c #8D6F4B",
"V 	c #F0F0F0",
"W 	c #E5E5E5",
"X 	c #5F5F5F",
"Y 	c #BEBEBE",
"Z 	c #DBDBDB",
"` 	c #BCBCBC",
" .	c #818181",
"..	c #EDEDED",
"+.	c #323232",
"@.	c #EBEBEB",
"#.	c #CBCBCB",
"$.	c #F4F4F4",
"%.	c #B6B6B6",
"&.	c #886A48",
"*.	c #B18B60",
"=.	c #281E11",
"-.	c #8E8E8E",
";.	c #F5F5F5",
">.	c #ABABAB",
",.	c #9E9E9E",
"'.	c #C2C2C2",
").	c #8A8A8A",
"!.	c #585858",
"~.	c #72593C",
"{.	c #606060",
"].	c #FAFAFA",
"^.	c #5C5C5C",
"/.	c #2A2A2A",
"(.	c #696969",
"_.	c #F9F9F9",
":.	c #353535",
"<.	c #222222",
"[.	c #3D3D3D",
"}.	c #7A7A7A",
"|.	c #D1D1D1",
"1.	c #E3E3E3",
"2.	c #6E6E6E",
"3.	c #E7E7E7",
"4.	c #A6A6A6",
"5.	c #656565",
"6.	c #B5B5B5",
"7.	c #B79063",
"8.	c #D4D4D4",
"9.	c #4F4F4F",
"0.	c #B7B7B7",
"a.	c #4B3A25",
"b.	c #ECECEC",
"c.	c #71583B",
"d.	c #D6D6D6",
"e.	c #A9A9A9",
"f.	c #A17E57",
"g.	c #424242",
"h.	c #423320",
"i.	c #957550",
"j.	c #B08A5F",
"k.	c #8C6D4A",
"l.	c #262626",
"m.	c #5A462E",
"n.	c #C0C0C0",
"o.	c #C4C4C4",
"p.	c #A3A3A3",
"q.	c #6D6D6D",
"r.	c #967650",
"s.	c #929292",
"t.	c #2C2114",
"u.	c #B38D61",
"v.	c #E4E4E4",
"w.	c #A8845B",
"x.	c #9C9C9C",
"y.	c #EAEAEA",
"z.	c #7D7D7D",
"A.	c #826645",
"B.	c #D8D8D8",
"C.	c #AFAFAF",
"D.	c #878787",
"E.	c #494949",
"F.	c #A8A8A8",
"G.	c #7C6142",
"H.	c #5F4931",
"I.	c #C8C8C8",
"J.	c #8F8F8F",
"K.	c #CACACA",
"L.	c #999999",
"M.	c #CDCDCD",
"N.	c #BA9265",
"O.	c #7C6141",
"P.	c #C9C9C9",
"Q.	c #5D472F",
"R.	c #9F7C55",
"S.	c #BDBDBD",
"T.	c #BA9365",
"U.	c #614B32",
"V.	c #626262",
"W.	c #939393",
"X.	c #4D4D4D",
"Y.	c #A27F57",
"Z.	c #856846",
"`.	c #7E6242",
" +	c #614B31",
".+	c #FDFDFD",
"++	c #797979",
"@+	c #454545",
"#+	c #848484",
"$+	c #BB9366",
"%+	c #8C6E4A",
"&+	c #B89164",
"*+	c #C3C3C3",
"=+	c #E9E9E9",
"-+	c #E2E2E2",
";+	c #7E7E7E",
">+	c #515151",
",+	c #161616",
"'+	c #4D3B26",
")+	c #8A6C49",
"!+	c #B68F62",
"~+	c #302416",
"{+	c #AA865C",
"]+	c #191109",
"^+	c #7F7F7F",
"/+	c #DDDDDD",
"(+	c #E8E8E8",
"_+	c #555555",
":+	c #5A5A5A",
"<+	c #686868",
"[+	c #B8B8B8",
"}+	c #352818",
"|+	c #AC875D",
"1+	c #8D8D8D",
"2+	c #9F9F9F",
"3+	c #979797",
"4+	c #E0E0E0",
"5+	c #767676",
"6+	c #7C7C7C",
"7+	c #383838",
"8+	c #DFDFDF",
"9+	c #707070",
"0+	c #AEAEAE",
"a+	c #7F6343",
"b+	c #BB9365",
"c+	c #483723",
"d+	c #5E4930",
"e+	c #604A31",
"f+	c #675035",
"g+	c #71573B",
"h+	c #A68259",
"i+	c #4F3D28",
"j+	c #664F35",
"k+	c #493824",
"l+	c #1F160C",
"m+	c #523F29",
"n+	c #AB865C",
"              . . . . . . . . . . . . . . . . . . . . . . . . . . . . . . . . . . . . . . . . . . . . . . . . . . . . . . . . . . . . . . . . . . . . . . . . . . . . . . . . . . . . . . . . . . . . . . . . . . . . . . . . . . . . . . . . . . . . . . . . . . . . . . . . . . . . . . . . . . . . . . . . . . . . . . . . . . . . . . . . . . . . . . . . . . . . . . . . . . . . . . . . . .               ",
"          . . . . . . . . . . . . . . . . . . . . . . . . . . . . . . . . . . . . . . . . . . . . . . . . . . . . . . . . . . . . . . . . . . . . . . . . . . . . . . . . . . . . . . . . . . . . . . . . . . . . . . . . . . . . . . . . . . . . . . . . . . . . . . . . . . . . . . . . . . . . . . . . . . . . . . . . . . . . . . . . . . . . . . . . . . . . . . . . . . . . . . . . . . . . . .           ",
"      . . + + + + + + + + + + + + + + + + + + + + + + + + + + + + + + + + + + + + + + + + + + + + + + + + + + + + + + + + + + + + + + + + + + + + + + + + + + + + + + + + + + + + + + + + + + + + + + + + + + + + + + + + + + + + + + + + + + + + + + + + + + + + + + + + + + + + + + + + + + + + + + + + + + + + + + + + + + + + + + + + + + + + + + + + + + + + + + + + + + + + + + + + + + + + + + . .       ",
"    . . + + + + + + + + + + + + + + + + + + + + + + + + + + + + + + + + + + + + + + + + + + + + + + + + + + + + + + + + + + + + + + + + + + + + + + + + + + + + + + + + + + + + + + + + + + + + + + + + + + + + + + + + + + + + + + + + + + + + + + + + + + + + + + + + + + + + + + + + + + + + + + + + + + + + + + + + + + + + + + + + + + + + + + + + + + + + + + + + + + + + + + + + + + + + + + + + . .     ",
"    . + + + + + + + + + + + + + + + + + + + + + + + + + + + + + + + + + + + + + + + + + + + + + + + + + + + + + + + + + + + + + + + + + + + + + + + + + + + + + + + + + + + + + + + + + + + + + + + + + + + + + + + + + + + + + + + + + + + + + + + + + + + + + + + + + + + + + + + + + + + + + + + + + + + + + + + + + + + + + + + + + + + + + + + + + + + + + + + + + + + + + + + + + + + + + + + + + + .     ",
"  . + + + + + + + + + + + + + + + + + + + + + + + + + + + + + + + + + + + + + + + + + @ # $ % & & & * = - + + + + ; > . . . . . . . . . , ' ) ! + + ' . . . . . . . . . . . . . . . ~ + { ] . . . . . . . . . . . ^ / + + + + @ # $ % & & & * = - + + ( _ . . . . . : < + [ . . . . . . . } | + + 1 2 3 4 5 5 5 > 6 7 7 7 8 + + + + + + + + + + + + + + + + + + + + + + + + + + + + + + + + + + + + + + + + .   ",
"  . + + + + + + + + + + + + + + + + + + + + + + + + + + + + + + + + + + + + + + + + < ' . . . . . . . . . 9 0 + ; > . . . . . . . . . . . . . a b ' . . . . . . . . . . . . . . . . . ~ ] . . . . . . . . . . . . . ^ / + + < ' . . . . . . . . . 9 0 _ . . . . . . . : [ . . . . . . . . . } | c d . . . . . . . . . . . 7 8 + + + + + + + + + + + + + + + + + + + + + + + + + + + + + + + + + + + + + + + .   ",
". . + + + + + + + + + + + + + + + + + + + + + + + + + + + + + + + + + + + + + + + e , . f g h i j k l m n . o 8 - . p q r r r r r r r s t u v . . ' . w r r r r r r r r r r r r r x . y . z A r r r r r r r r r B C . D + e , . f g h i j k l m n . o . E F r r r A G . H . I r r r r r s J . K L . M N F O s q P Q R S T . U + + + + + + + + + + + + + + + + + + + + + + + + + + + + + + + + + + + + + + + . . ",
". . + + + + + + + + + + + + + + + + + + + + + + + + + + + + + + + + + + + + + + e , . G V r r r r r r r W X . o - . m r r r r r r r r r r r r Y . . . w r r r r r r r r r r r r r x . y . Z r r r r r r r r r r r ` . D e , . G V r r r r r r r W X . .  .r r r r r ..+.. . @.r r r r r r #.. L .  .$.r r r r r r r r r %.. &.+ + + + + + + + + + + + + + + + + + + + + + + + + + + + + + + + + + + + + + + . . ",
". . + + + + + + + + + + + + + + + + + + + + + + + + + + + + + + + + + + + + + *.=.. -.j r r r r r r r r r ;.T . > . p q r r r r r r r r r r r r >.. . w r r r r r r r r r r r r r x . y . ,.A r r r r r r r r r O C . D =.. -.j r r r r r r r r r ;.T . E F r r r r r '.. . I r r r r r s ).. . !.B r r r r r r r r r r Y . &.+ + + + + + + + + + + + + + + + + + + + + + + + + + + + + + + + + + + + + + + . . ",
". . + + + + + + + + + + + + + + + + + + + + + + + + + + + + + + + + + + + + + ~.. {.].r r k >.^./.(.N _.r r q :.. > . . <.r r W . . . [.}.|.r r k n . w r i . . [.r r 1.. . 2.r r x . ~ ] . . . . . r r 3.. . . . . ^ ~.. {.].r r k >.^./.(.N _.r r q :.. . . ;.r r r A v . . . . O r w . . , . Y r r $.4.!./.5.6.s r r Y . &.+ + + + + + + + + + + + + + + + + + + + + + + + + + + + + + + + + + + + + + + . . ",
". . + + + + + + + + + + + + + + + + + + + + + + + + + + + + + + + + + + + + 7.5 . 8.r r F 9.. . . . . T k r r 0.. a.> . <.r r W . . . . . . 1.r r ^.. w r i . . [.r r 1.. . 2.r r x . ~ { ] . . . . r r 3.. . . . ^ / 5 . 8.r r F 9.. . . . . T k r r 0.. . . ;.r r r r b.f . . . O r w . , c.. d.r r Q . . . . . e.r r %.. &.+ + + + + + + + + + + + + + + + + + + + + + + + + + + + + + + + + + + + + + + . . ",
". . + + + + + + + + + + + + + + + + + + + + + + + + + + + + + + + + + + + + f.. g.j r ].!.. h.i.j.k.4 . G r r t . . 0 . <.r r W . . . . . l.@.r r 9.. w r i . . [.r r 1.. . 2.r r x . ~ + + + + . . r r 3.. m.+ + + f.. g.j r ].!.. h.i.j.k.4 . G r r t . . . ;.r ;.@.r r n.. & . O r w . ' c.. o.r r p.. . . . . g.@.k q.. U + + + + + + + + + + + + + + + + + + + + + + + + + + + + + + + + + + + + + + + . . ",
". . + + + + + + + + + + + + + + + + + + + + + + + + + + + + + + + + + + + + r.. s.r r #.. t.u.+ + + < a . v.r r X . w.. <.r r W . . <.^.x.W r r y.. . w r i . . [.r r 1.. . 2.r r x . ~ + + + + . . r r 3.. m.+ + + r.. s.r r #.. t.u.+ + + < a . v.r r X . . ;.r k z.A r A z.. . O r w . ' A.. q.j r A B.C.D.E.. . . . . 7 8 + + + + + + + + + + + + + + + + + + + + + + + + + + + + + + + + + + + + + + + . . ",
". . + + + + + + + + + + + + + + + + + + + + + + + + + + + + + + + + + + + + r.. F.r r g . G.+ + + + + H.. I.r r  .. w.. <.r r r r r r r r r r A J.. . '.r K.. . [.r r 1.. . :.F A L.. ~ + + + + . . r r 3.. m.+ + + r.. F.r r g . G.+ + + + + H.. I.r r  .. . ;.r k . n.r r @./.. O r w . ' 8 5 . m s r r r r r t M.).. . 6 N.+ + + + + + + + + + + + + + + + + + + + + + + + + + + + + + + + + + + + + + + . . ",
". . + + + + + + + + + + + + + + + + + + + + + + + + + + + + + + + + + + + + r.. F.r r g . O.+ + + + + H.. P.r r v . w.. <.r r r r r r r r r i s.. & . . . . . . [.r r 1.. Q.. . . . ] R.+ + + + . . r r 3.. m.+ + + r.. F.r r g . O.+ + + + + H.. P.r r v . . ;.r k . f b.r r S.. O r w . ' T.U.5 . V.o...r r r r r r d./.. A.+ + + + + + + + + + + + + + + + + + + + + + + + + + + + + + + + + + + + + + + . . ",
". . + + + + + + + + + + + + + + + + + + + + + + + + + + + + + + + + + + + + r.. W.r r #.. t.u.+ + + c a . v.r r X . w.. <.r r r r r A O 3.` X.. & Y.Z.. . . `.. [.r r 1..  +Q.] ] ] R.+ + + + + . . r r 3.. m.+ + + r.. W.r r #.. t.u.+ + + c a . v.r r X . . ;.r k . .  .A r .+++O r w . ' U.. . . . . . @+#+g M.O r r R . =.$++ + + + + + + + + + + + + + + + + + + + + + + + + + + + + + + + + + + + + + . . ",
". . + + + + + + + + + + + + + + + + + + + + + + + + + + + + + + + + + + + + f.. @+j r _.!.. 7 # j.%+4 .  .r r t . . 0 . <.r r W . . . . . . . % Y.+ + + + + &+. [.r r 1..  ++ + + + + + + + + + . . r r 3.. m.+ + + f.. @+j r _.!.. 7 # j.%+4 .  .r r t . . . ;.r k . ] . *+r r =+].r w . ' . <.-+S ;+. ] . . . . >+S r s ,+. ; + + + + + + + + + + + + + + + + + + + + + + + + + + + + + + + + + + + + + + . . ",
". . + + + + + + + + + + + + + + + + + + + + + + + + + + + + + + + + + + + + 7.5 . P r r F X.. . . . . (.S r r 0.. a.'+. <.r r W . . . . ^ m.)+!++ + + + # a . . [.r r 1.. . . ~+{++ + + { ] . . . . r r 3.. . . . ^ / 5 . P r r F X.. . . . . (.S r r 0.. ]+. ;.r k . . . +.q r r r r w . ' . ^+r r /+,+. . . . . ,+(+r r _+. ; + + + + + + + + + + + + + + + + + + + + + + + + + + + + + + + + + + + + + + . . ",
". . + + + + + + + + + + + + + + + + + + + + + + + + + + + + + + + + + + + + + ~.. V.].r r S g :+l.<+[+_.r r q :.. '+. . <.r r W . . . . . }+|++ + + + # a . . . [.r r 1.. . . . ~+{++ { ] . . . . . r r 3.. . . . . ^ ~.. V.].r r S g :+l.<+[+_.r r q :.. . . ;.r k . . . . #+A r r r w . ' . 1+r r r W 2+!./.^.3+4+r r ].l.. ; + + + + + + + + + + + + + + + + + + + + + + + + + + + + + + + + + + + + + + . . ",
". . + + + + + + + + + + + + + + + + + + + + + + + + + + + + + + + + + + + + + *.=.. J.j r r r r r r r r r ;.T . '+. p q r r r r r r r B 5+. 2 + + + + 9 . >.r r r r r r r r O 6+. &.+ y . z A r r r r r r r r r B C . D =.. J.j r r r r r r r r r ;.T . . W..+r r r r r >.. . R r r r w . ' . 1+r r r r r r r r r r r r '.. t.T.+ + + + + + + + + + + + + + + + + + + + + + + + + + + + + + + + + + + + + + . . ",
". . + + + + + + + + + + + + + + + + + + + + + + + + + + + + + + + + + + + + + + e , . #+V r r r r r r r W {.. o - . m r r r r r r r r r N . 2 + + + + 9 . W r r r r r r r r r Y . &.+ y . Z r r r r r r r r r r r ` . D e , . #+V r r r r r r r W {.. o . x r r r r r r W . . 7+t r r w . ' . ^+r r r r r r r r r r r I.<.. Z.+ + + + + + + + + + + + + + + + + + + + + + + + + + + + + + + + + + + + + + + . . ",
". . + + + + + + + + + + + + + + + + + + + + + + + + + + + + + + + + + + + + + + + e , . +.>.8+i .+k B.m n . o 8 - . p q r r r r r r r B 5+. 2 + + + + 9 . >.r r r r r r r r O 6+. &.+ y . ,.A r r r r r r r r r O C . D + e , . +.>.8+i .+k B.m n . o ~ . s.j r r r r r >.. a.. D.r r w . ' . <.1.q 9+0+h V j ].@.K.++. . a+b++ + + + + + + + + + + + + + + + + + + + + + + + + + + + + + + + + + + + + + + . . ",
"  . + + + + + + + + + + + + + + + + + + + + + + + + + + + + + + + + + + + + + + + + < c+. . . . . . . . . d+0 + ; > . . . . . . . . . . . }+|++ + + + # a . . . . . . . . . . . ~+{++ { ] . . . . . . . . . . . . . ^ / + + < c+. . . . . . . . . d+0 f.5 . . . . . . . . a # : . . . . . ' e+. . . . . . . . . . . . a a+b++ + + + + + + + + + + + + + + + + + + + + + + + + + + + + + + + + + + + + + + + .   ",
"  . + + + + + + + + + + + + + + + + + + + + + + + + + + + + + + + + + + + + + + + + + N.i.f+o ]+]+]+7 g+- + + + + ; > . . . . . . . . . }+|++ + + + + + # a . . . . . . . . . ~+{++ + + { ] . . . . . . . . . . . ^ / + + + + N.i.f+o ]+]+]+7 g+- + + + f.5 . . . . . . a # + h+: . . . ' + T.e+i+i+i+j+k+l+l+l+t.m+`.n++ + + + + + + + + + + + + + + + + + + + + + + + + + + + + + + + + + + + + + + + + + .   ",
"    . + + + + + + + + + + + + + + + + + + + + + + + + + + + + + + + + + + + + + + + + + + + + + + + + + + + + + + + + + + + + + + + + + + + + + + + + + + + + + + + + + + + + + + + + + + + + + + + + + + + + + + + + + + + + + + + + + + + + + + + + + + + + + + + + + + + + + + + + + + + + + + + + + + + + + + + + + + + + + + + + + + + + + + + + + + + + + + + + + + + + + + + + + + + + + + + + + + .     ",
"    . . + + + + + + + + + + + + + + + + + + + + + + + + + + + + + + + + + + + + + + + + + + + + + + + + + + + + + + + + + + + + + + + + + + + + + + + + + + + + + + + + + + + + + + + + + + + + + + + + + + + + + + + + + + + + + + + + + + + + + + + + + + + + + + + + + + + + + + + + + + + + + + + + + + + + + + + + + + + + + + + + + + + + + + + + + + + + + + + + + + + + + + + + + + + + + + + + . .     ",
"      . . + + + + + + + + + + + + + + + + + + + + + + + + + + + + + + + + + + + + + + + + + + + + + + + + + + + + + + + + + + + + + + + + + + + + + + + + + + + + + + + + + + + + + + + + + + + + + + + + + + + + + + + + + + + + + + + + + + + + + + + + + + + + + + + + + + + + + + + + + + + + + + + + + + + + + + + + + + + + + + + + + + + + + + + + + + + + + + + + + + + + + + + + + + + + + + . .       ",
"          . . . . . . . . . . . . . . . . . . . . . . . . . . . . . . . . . . . . . . . . . . . . . . . . . . . . . . . . . . . . . . . . . . . . . . . . . . . . . . . . . . . . . . . . . . . . . . . . . . . . . . . . . . . . . . . . . . . . . . . . . . . . . . . . . . . . . . . . . . . . . . . . . . . . . . . . . . . . . . . . . . . . . . . . . . . . . . . . . . . . . . . . . . . . . .           ",
"              . . . . . . . . . . . . . . . . . . . . . . . . . . . . . . . . . . . . . . . . . . . . . . . . . . . . . . . . . . . . . . . . . . . . . . . . . . . . . . . . . . . . . . . . . . . . . . . . . . . . . . . . . . . . . . . . . . . . . . . . . . . . . . . . . . . . . . . . . . . . . . . . . . . . . . . . . . . . . . . . . . . . . . . . . . . . . . . . . . . . . . . . . .               "};
