/* XPM */
static xpm_string_t quit_xpm[] = {
"200 30 196 2",
"  	c None",
". 	c #000000",
"+ 	c #BC9466",
"@ 	c #BA9365",
"# 	c #977651",
"$ 	c #675035",
"% 	c #392B1B",
"& 	c #160F07",
"* 	c #3F301E",
"= 	c #6F563A",
"- 	c #9F7C55",
"; 	c #9C7A53",
"> 	c #120B05",
", 	c #8A6C49",
"' 	c #2C2114",
") 	c #A8845B",
"! 	c #332618",
"~ 	c #AB875C",
"{ 	c #473623",
"] 	c #765C3E",
"^ 	c #AC875D",
"/ 	c #4F3D28",
"( 	c #614B31",
"_ 	c #B18B60",
": 	c #A9855B",
"< 	c #262626",
"[ 	c #A7A7A7",
"} 	c #DDDDDD",
"| 	c #F6F6F6",
"1 	c #FCFCFC",
"2 	c #F3F3F3",
"3 	c #D7D7D7",
"4 	c #979797",
"5 	c #0D0D0D",
"6 	c #423320",
"7 	c #6C5438",
"8 	c #9D9D9D",
"9 	c #FEFEFE",
"0 	c #FFFFFF",
"a 	c #A0A0A0",
"b 	c #BCBCBC",
"c 	c #FAFAFA",
"d 	c #818181",
"e 	c #F7F7F7",
"f 	c #787878",
"g 	c #F1F1F1",
"h 	c #D2D2D2",
"i 	c #767676",
"j 	c #ECECEC",
"k 	c #E3E3E3",
"l 	c #606060",
"m 	c #DBDBDB",
"n 	c #C4C4C4",
"o 	c #B58E62",
"p 	c #382A1A",
"q 	c #7D7D7D",
"r 	c #F9F9F9",
"s 	c #656565",
"t 	c #9E9E9E",
"u 	c #BBBBBB",
"v 	c #828282",
"w 	c #F8F8F8",
"x 	c #7C6142",
"y 	c #4F4F4F",
"z 	c #F2F2F2",
"A 	c #AAAAAA",
"B 	c #5A5A5A",
"C 	c #2A2A2A",
"D 	c #6A6A6A",
"E 	c #BABABA",
"F 	c #EDEDED",
"G 	c #E9E9E9",
"H 	c #2B1F12",
"I 	c #E7E7E7",
"J 	c #3D3D3D",
"K 	c #6E6E6E",
"L 	c #B99264",
"M 	c #CACACA",
"N 	c #E5E5E5",
"O 	c #4B4B4B",
"P 	c #F4F4F4",
"Q 	c #B4B4B4",
"R 	c #A8845A",
"S 	c #A38058",
"T 	c #323232",
"U 	c #555555",
"V 	c #443321",
"W 	c #967550",
"X 	c #AF8A5F",
"Y 	c #8B6C4A",
"Z 	c #878787",
"` 	c #57432C",
" .	c #5A462E",
"..	c #977751",
"+.	c #8D8D8D",
"@.	c #C9C9C9",
"#.	c #302416",
"$.	c #B48E62",
"%.	c #A6835A",
"&.	c #060402",
"*.	c #E6E6E6",
"=.	c #565656",
"-.	c #91724D",
";.	c #A6A6A6",
">.	c #7F6343",
",.	c #5C472F",
"'.	c #CBCBCB",
").	c #7A7A7A",
"!.	c #C2C2C2",
"~.	c #353535",
"{.	c #999999",
"].	c #B0B0B0",
"^.	c #7E6242",
"/.	c #7E7E7E",
"(.	c #856846",
"_.	c #5D472F",
":.	c #A2A2A2",
"<.	c #2E2215",
"[.	c #B48D61",
"}.	c #B89164",
"|.	c #997852",
"1.	c #727272",
"2.	c #957550",
"3.	c #8B6D4A",
"4.	c #848484",
"5.	c #EEEEEE",
"6.	c #886A48",
"7.	c #AE895E",
"8.	c #3B3B3B",
"9.	c #AD885D",
"0.	c #6C6C6C",
"a.	c #959595",
"b.	c #B6B6B6",
"c.	c #D3D3D3",
"d.	c #94744F",
"e.	c #AA865C",
"f.	c #4E3C27",
"g.	c #A3A3A3",
"h.	c #A9A9A9",
"i.	c #585858",
"j.	c #696969",
"k.	c #B9B9B9",
"l.	c #383838",
"m.	c #503E28",
"n.	c #BDBDBD",
"o.	c #FBFBFB",
"p.	c #686868",
"q.	c #717171",
"r.	c #C8C8C8",
"s.	c #969696",
"t.	c #745A3D",
"u.	c #D8D8D8",
"v.	c #F5F5F5",
"w.	c #896B48",
"x.	c #E8E8E8",
"y.	c #9F7D56",
"z.	c #896B49",
"A.	c #5D4830",
"B.	c #ABABAB",
"C.	c #7C7C7C",
"D.	c #6E5539",
"E.	c #3C2D1D",
"F.	c #58442D",
"G.	c #4D4D4D",
"H.	c #DFDFDF",
"I.	c #D5D5D5",
"J.	c #BEBEBE",
"K.	c #685136",
"L.	c #161616",
"M.	c #B2B2B2",
"N.	c #DCDCDC",
"O.	c #9F9F9F",
"P.	c #B68F62",
"Q.	c #FDFDFD",
"R.	c #939393",
"S.	c #EAEAEA",
"T.	c #9B9B9B",
"U.	c #404040",
"V.	c #A1A1A1",
"W.	c #F0F0F0",
"X.	c #E4E4E4",
"Y.	c #654E34",
"Z.	c #72593C",
"`.	c #6D5438",
" +	c #707070",
".+	c #7F7F7F",
"++	c #BB9366",
"@+	c #9C7A54",
"#+	c #6B5337",
"$+	c #3D2F1D",
"%+	c #A27F57",
"&+	c #DADADA",
"*+	c #2E2E2E",
"=+	c #B7B7B7",
"-+	c #AEAEAE",
";+	c #BA9265",
"              . . . . . . . . . . . . . . . . . . . . . . . . . . . . . . . . . . . . . . . . . . . . . . . . . . . . . . . . . . . . . . . . . . . . . . . . . . . . . . . . . . . . . . . . . . . . . . . . . . . . . . . . . . . . . . . . . . . . . . . . . . . . . . . . . . . . . . . . . . . . . . . . . . . . . . . . . . . . . . . . . . . . . . . . . . . . . . . . . . . . . . . . . .               ",
"          . . . . . . . . . . . . . . . . . . . . . . . . . . . . . . . . . . . . . . . . . . . . . . . . . . . . . . . . . . . . . . . . . . . . . . . . . . . . . . . . . . . . . . . . . . . . . . . . . . . . . . . . . . . . . . . . . . . . . . . . . . . . . . . . . . . . . . . . . . . . . . . . . . . . . . . . . . . . . . . . . . . . . . . . . . . . . . . . . . . . . . . . . . . . . .           ",
"      . . + + + + + + + + + + + + + + + + + + + + + + + + + + + + + + + + + + + + + + + + + + + + + + + + + + + + + + + + + + + + + + + + + + + + + + + + + + + + + + + + + + + + + + + + + + + + + + + + + + + + + + + + + + + + + + + + + + + + + + + + + + + + + + + + + + + + + + + + + + + + + + + + + + + + + + + + + + + + + + + + + + + + + + + + + + + + + + + + + + + + + + + + + + + + + + . .       ",
"    . . + + + + + + + + + + + + + + + + + + + + + + + + + + + + + + + + + + + + + + + + + + + + + + + + + + + + + + + + + + + + + + + + + + + + + + + + + + + + + + + + + + + + + + + + + + + + + + + + + + + + + + + + + + + + + + + + + + + + + + + + + + + + + + + + + + + + + + + + + + + + + + + + + + + + + + + + + + + + + + + + + + + + + + + + + + + + + + + + + + + + + + + + + + + + + + + + . .     ",
"    . + + + + + + + + + + + + + + + + + + + + + + + + + + + + + + + + + + + + + + + + + + + + + + + + + + + + + + + + + + + + + + + + + + + + + + + + + + + + + + + + + + + + + + + + + + + + + + + + + + + + + + + + + + + + + + + + + + + + + + + + + + + + + + + + + + + + + + + + + + + + + + + + + + + + + + + + + + + + + + + + + + + + + + + + + + + + + + + + + + + + + + + + + + + + + + + + + + .     ",
"  . + + + + + + + + + + + + + + + + + + + + + + + + + + + + + + + + + + + + + + + + + + + + + + + + + + + + + + + + + + + + + + + + + + @ # $ % & & & * = - + + + ; > . . . . . . > , . . . . . . . ' ) ; > . . . . . . . . . . . ! ~ + { . . . . . . . . . . . . . . . ] + + + + + + + + + + + + + + + + + + + + + + + + + + + + + + + + + + + + + + + + + + + + + + + + + + + + + + + + + + + + + + + + + .   ",
"  . + + + + + + + + + + + + + + + + + + + + + + + + + + + + + + + + + + + + + + + + + + + + + + + + + + + + + + + + + + + + + + + + + ^ / . . . . . . . . . ( _ ; > . . . . . . . . . . . . . . . . . ' > . . . . . . . . . . . . . ! { . . . . . . . . . . . . . . . . . ] + + + + + + + + + + + + + + + + + + + + + + + + + + + + + + + + + + + + + + + + + + + + + + + + + + + + + + + + + + + + + + + + .   ",
". . + + + + + + + + + + + + + + + + + + + + + + + + + + + + + + + + + + + + + + + + + + + + + + + + + + + + + + + + + + + + + + + + : ' . < [ } | 1 2 3 4 5 . 6 7 . 8 9 0 0 0 0 9 a . b 0 0 0 0 0 c d . . 8 9 0 0 0 0 0 0 0 0 0 e f . { . g 0 0 0 0 0 0 0 0 0 0 0 0 0 h . ] + + + + + + + + + + + + + + + + + + + + + + + + + + + + + + + + + + + + + + + + + + + + + + + + + + + + + + + + + + + + + + + + . . ",
". . + + + + + + + + + + + + + + + + + + + + + + + + + + + + + + + + + + + + + + + + + + + + + + + + + + + + + + + + + + + + + + + : ' . i j 0 0 0 0 0 0 0 k l . 6 . m 0 0 0 0 0 0 } . g 0 0 0 0 0 0 n . . m 0 0 0 0 0 0 0 0 0 0 0 b . { . g 0 0 0 0 0 0 0 0 0 0 0 0 0 h . ] + + + + + + + + + + + + + + + + + + + + + + + + + + + + + + + + + + + + + + + + + + + + + + + + + + + + + + + + + + + + + + + + . . ",
". . + + + + + + + + + + + + + + + + + + + + + + + + + + + + + + + + + + + + + + + + + + + + + + + + + + + + + + + + + + + + + + o p . q r 0 0 0 0 0 0 0 0 0 2 s . . t 9 0 0 0 0 9 a . u 0 0 0 0 0 c v . . t 9 0 0 0 0 0 0 0 0 0 w f . { . g 0 0 0 0 0 0 0 0 0 0 0 0 0 h . ] + + + + + + + + + + + + + + + + + + + + + + + + + + + + + + + + + + + + + + + + + + + + + + + + + + + + + + + + + + + + + + + + . . ",
". . + + + + + + + + + + + + + + + + + + + + + + + + + + + + + + + + + + + + + + + + + + + + + + + + + + + + + + + + + + + + + + x . y | 0 0 z A B C D E c 0 0 F C . . . 1 0 F . . . . . . . 0 0 G . . H > . . . . . 0 0 I . . . . . ! { . g 0 | . . J 0 0 k . . K 0 0 h . ] + + + + + + + + + + + + + + + + + + + + + + + + + + + + + + + + + + + + + + + + + + + + + + + + + + + + + + + + + + + + + + + + . . ",
". . + + + + + + + + + + + + + + + + + + + + + + + + + + + + + + + + + + + + + + + + + + + + + + + + + + + + + + + + + + + + + L H . M 0 0 N O . . . . . K P 0 0 Q . > . 1 0 F . . > , . . . 0 0 G . H R ; > . . . . 0 0 I . . . . ! ~ { . g 0 | . . J 0 0 k . . K 0 0 h . ] + + + + + + + + + + + + + + + + + + + + + + + + + + + + + + + + + + + + + + + + + + + + + + + + + + + + + + + + + + + + + + + + . . ",
". . + + + + + + + + + + + + + + + + + + + + + + + + + + + + + + + + + + + + + + + + + + + + + + + + + + + + + + + + + + + + + S . T c 0 r U . V W X Y ' . Z 0 0 j . . . 1 0 F . / + + + . . 0 0 G . ` + + + + + . . 0 0 I .  .+ + + + { . g 0 | . . J 0 0 k . . K 0 0 h . ] + + + + + + + + + + + + + + + + + + + + + + + + + + + + + + + + + + + + + + + + + + + + + + + + + + + + + + + + + + + + + + + + . . ",
". . + + + + + + + + + + + + + + + + + + + + + + + + + + + + + + + + + + + + + + + + + + + + + + + + + + + + + + + + + + + + + ... +.0 0 @.. #.$.+ + + %.&.. *.0 0 =.. . 1 0 F . / + + + . . 0 0 G . ` + + + + + . . 0 0 I .  .+ + + + { . g 0 | . . J 0 0 k . . K 0 0 h . ] + + + + + + + + + + + + + + + + + + + + + + + + + + + + + + + + + + + + + + + + + + + + + + + + + + + + + + + + + + + + + + + + . . ",
". . + + + + + + + + + + + + + + + + + + + + + + + + + + + + + + + + + + + + + + + + + + + + + + + + + + + + + + + + + + + + + -.. ;.0 0 [ . >.+ + + + + ,.. '.0 0 ).. . 1 0 F . / + + + . . 0 0 G . ` + + + + + . . 0 0 I .  .+ + + + { . !.0 M . . J 0 0 k . . ~.*.9 {.. ] + + + + + + + + + + + + + + + + + + + + + + + + + + + + + + + + + + + + + + + + + + + + + + + + + + + + + + + + + + + + + + + + . . ",
". . + + + + + + + + + + + + + + + + + + + + + + + + + + + + + + + + + + + + + + + + + + + + + + + + + + + + + + + + + + + + + -.. ].0 0 [ . ^.+ + + + + ,.. '.0 0 /.. . 1 0 F . / + + + . . 0 0 G . ` + + + + + . . 0 0 I .  .+ + + + (.. . . . . . J 0 0 k . _.. . . . > - + + + + + + + + + + + + + + + + + + + + + + + + + + + + + + + + + + + + + + + + + + + + + + + + + + + + + + + + + + + + + + + + . . ",
". . + + + + + + + + + + + + + + + + + + + + + + + + + + + + + + + + + + + + + + + + + + + + + + + + + + + + + + + + + + + + + -.. :.0 0 @.. <.[.+ + + %.&.. *.0 0 B . . 1 0 F . % + + }.. . 0 0 G . ` + + + + + . . 0 0 I .  .+ + + + + (.. . . ^.. J 0 0 k . ( _.> > > - + + + + + + + + + + + + + + + + + + + + + + + + + + + + + + + + + + + + + + + + + + + + + + + + + + + + + + + + + + + + + + + + + . . ",
". . + + + + + + + + + + + + + + + + + + + + + + + + + + + + + + + + + + + + + + + + + + + + + + + + + + + + + + + + + + + + + |.. 1.0 0 r U . 6 2.X 3.' . 4.0 0 5.. . . r 0 z . . 6.7.>.. 8.0 0 *.. ` + + + + + . . 0 0 I .  .+ + + + + + + + + }.. J 0 0 k . ( + + + + + + + + + + + + + + + + + + + + + + + + + + + + + + + + + + + + + + + + + + + + + + + + + + + + + + + + + + + + + + + + + + + + + + . . ",
". . + + + + + + + + + + + + + + + + + + + + + + + + + + + + + + + + + + + + + + + + + + + + + + + + + + + + + + + + + + + + + 9.. . F 0 0 N O . . . . . 0.2 0 0 Q . <.. j 0 0 a.. . . . . b.0 0 c.. ,.+ ; > . . . . 0 0 I . . . . ! ~ + + + d.&.. . J 0 0 k . . . #.e.+ + + + + + + + + + + + + + + + + + + + + + + + + + + + + + + + + + + + + + + + + + + + + + + + + + + + + + + + + + + + + + + + + + + . . ",
". . + + + + + + + + + + + + + + + + + + + + + + + + + + + + + + + + + + + + + + + + + + + + + + + + + + + + + + + + + + + + + + f.. g.0 0 0 z h.i.C j.k.r 0 0 F l.. m.. n.0 0 o.n.p.T q.r.0 0 0 s.. t.; > . . . . . 0 0 I . . . . . ! ~ + d.&.. . . J 0 0 k . . . . #.e.+ + + + + + + + + + + + + + + + + + + + + + + + + + + + + + + + + + + + + + + + + + + + + + + + + + + + + + + + + + + + + + + + + + . . ",
". . + + + + + + + + + + + + + + + + + + + + + + + + + + + + + + + + + + + + + + + + + + + + + + + + + + + + + + + + + + + + + + |.. 5 u.0 0 0 0 0 0 0 0 0 0 v.K . m.w.. ~.x.0 0 0 0 0 0 0 0 0 u.. . y.7 . 8 9 0 0 0 0 0 0 0 0 0 e f . z.+ A.. B.0 0 0 0 0 0 0 0 w C.. 6.+ + + + + + + + + + + + + + + + + + + + + + + + + + + + + + + + + + + + + + + + + + + + + + + + + + + + + + + + + + + + + + + + + + . . ",
". . + + + + + + + + + + + + + + + + + + + + + + + + + + + + + + + + + + + + + + + + + + + + + + + + + + + + + + + + + + + + + + + D.. 8.} 0 0 0 0 0 0 0 0 I p.. E.A.L F.. G.H.0 0 0 0 0 0 0 I.~.. = + 7 . m 0 0 0 0 0 0 0 0 0 0 0 b . z.+ A.. N 0 0 0 0 0 0 0 0 0 J.. 6.+ + + + + + + + + + + + + + + + + + + + + + + + + + + + + + + + + + + + + + + + + + + + + + + + + + + + + + + + + + + + + + + + + + . . ",
". . + + + + + + + + + + + + + + + + + + + + + + + + + + + + + + + + + + + + + + + + + + + + + + + + + + + + + + + + + + + + + + + }.K.. L.M.| 0 0 0 | N.O.L.. . . . A.P.F.. L.t N.| Q.v.u.R.. . = L + 7 . t 9 0 0 0 0 0 0 0 0 0 w f . z.+ A.. B.0 0 0 0 0 0 0 0 w C.. 6.+ + + + + + + + + + + + + + + + + + + + + + + + + + + + + + + + + + + + + + + + + + + + + + + + + + + + + + + + + + + + + + + + + + . . ",
"  . + + + + + + + + + + + + + + + + + + + + + + + + + + + + + + + + + + + + + + + + + + + + + + + + + + + + + + + + + + + + + + + + 7.* . s 5.0 0 0 S.I.T.U.V.W.X.T . : P.Y.. . . . . . . . . Z.L + + ; > . . . . . . . . . . . . . ! ~ + d.&.. . . . . . . . . . . #.e.+ + + + + + + + + + + + + + + + + + + + + + + + + + + + + + + + + + + + + + + + + + + + + + + + + + + + + + + + + + + + + + + + + + .   ",
"  . + + + + + + + + + + + + + + + + + + + + + + + + + + + + + + + + + + + + + + + + + + + + + + + + + + + + + + + + + + + + + + + + `..  +P 0 0 0 0 0 0 0 0 0 0 0 .+. : + ++@+#+% > > > $+= %++ + + + + ; > . . . . . . . . . . . ! ~ + + + d.&.. . . . . . . . . #.e.+ + + + + + + + + + + + + + + + + + + + + + + + + + + + + + + + + + + + + + + + + + + + + + + + + + + + + + + + + + + + + + + + + + + .   ",
"    . + + + + + + + + + + + + + + + + + + + + + + + + + + + + + + + + + + + + + + + + + + + + + + + + + + + + + + + + + + + + + + + `.. &+0 0 0 0 0 0 0 0 0 0 0 *.*+. : + + + + + + + + + + + + + + + + + + + + + + + + + + + + + + + + + + + + + + + + + + + + + + + + + + + + + + + + + + + + + + + + + + + + + + + + + + + + + + + + + + + + + + + + + + + + + + + + + + + + + + + + + + + + + + + + + .     ",
"    . . + + + + + + + + + + + + + + + + + + + + + + + + + + + + + + + + + + + + + + + + + + + + + + + + + + + + + + + + + + + + + + `.. [ r N =+.+8.=.-+x.1 5.k.T . _.;++ + + + + + + + + + + + + + + + + + + + + + + + + + + + + + + + + + + + + + + + + + + + + + + + + + + + + + + + + + + + + + + + + + + + + + + + + + + + + + + + + + + + + + + + + + + + + + + + + + + + + + + + + + + + + + + + . .     ",
"      . . + + + + + + + + + + + + + + + + + + + + + + + + + + + + + + + + + + + + + + + + + + + + + + + + + + + + + + + + + + + + + # ' . . . . . . . . . . . . . _.;++ + + + + + + + + + + + + + + + + + + + + + + + + + + + + + + + + + + + + + + + + + + + + + + + + + + + + + + + + + + + + + + + + + + + + + + + + + + + + + + + + + + + + + + + + + + + + + + + + + + + + + + + + + + + + + + + . .       ",
"          . . . . . . . . . . . . . . . . . . . . . . . . . . . . . . . . . . . . . . . . . . . . . . . . . . . . . . . . . . . . . . . . . . . . . . . . . . . . . . . . . . . . . . . . . . . . . . . . . . . . . . . . . . . . . . . . . . . . . . . . . . . . . . . . . . . . . . . . . . . . . . . . . . . . . . . . . . . . . . . . . . . . . . . . . . . . . . . . . . . . . . . . . . . . . .           ",
"              . . . . . . . . . . . . . . . . . . . . . . . . . . . . . . . . . . . . . . . . . . . . . . . . . . . . . . . . . . . . . . . . . . . . . . . . . . . . . . . . . . . . . . . . . . . . . . . . . . . . . . . . . . . . . . . . . . . . . . . . . . . . . . . . . . . . . . . . . . . . . . . . . . . . . . . . . . . . . . . . . . . . . . . . . . . . . . . . . . . . . . . . . .               "};
