/* XPM */
static char * dot_xpm[] = {
"30 30 14 1",
" 	c None",
".	c #000000",
"+	c #5C5C5C",
"@	c #E3E3E3",
"#	c #FBFBFB",
"$	c #DCDCDC",
"%	c #404040",
"&	c #C7C7C7",
"*	c #FFFFFF",
"=	c #B2B2B2",
"-	c #5F5F5F",
";	c #E5E5E5",
">	c #DDDDDD",
",	c #424242",
"                              ",
"                              ",
"                              ",
"                              ",
"                              ",
"                              ",
"                              ",
"                              ",
"                              ",
"                              ",
"                              ",
"                              ",
"                              ",
"                              ",
"                              ",
"                              ",
"                              ",
"                              ",
"                              ",
"                              ",
"                              ",
"                              ",
"            .....             ",
"           .+@#$%.            ",
"           .&***=.            ",
"           .&***=.            ",
"           .-;#>,.            ",
"            .....             ",
"                              ",
"                              "};
